<svg width="181" height="129" viewBox="0 0 181 129" fill="none" xmlns="http://www.w3.org/2000/svg">
<path fill-rule="evenodd" clip-rule="evenodd" d="M35.7836 102.122C34.0952 102.122 33.4046 100.012 33.4046 97.6681C33.4046 96.3398 33.4046 95.0115 33.558 93.8395C33.7883 91.7299 35.0161 90.4797 36.6277 90.4797C38.5462 90.4797 39.5439 93.1363 39.5439 95.7147C39.5439 98.8401 38.7765 102.122 35.7836 102.122ZM42.9973 81.8068L42.767 81.6505C42.5368 81.8068 42.3833 81.8849 42.2298 81.9631C41.7694 82.2756 41.3089 82.51 40.8485 82.6663C40.2346 82.9007 39.6974 82.9788 39.0834 83.0569C38.5462 83.0569 38.0091 83.0569 37.4719 83.0569C36.551 83.0569 35.5533 83.2132 34.7092 83.5257C34.0185 83.7601 33.3278 84.1508 32.7906 84.6196C31.5628 85.5572 30.7953 86.8855 30.6419 88.4482C30.5651 88.917 30.5651 89.464 30.4884 89.9328C30.4884 90.636 30.4884 91.3392 30.5651 92.0424C30.5651 93.4488 30.5651 94.9334 30.5651 96.3398C30.5651 99.934 31.5628 103.216 35.7068 103.216C41.0787 103.216 42.8438 99.6996 42.8438 94.7771C42.8438 92.7456 42.1531 90.4797 40.388 89.2296C39.6206 88.7608 38.6997 88.4482 37.7788 88.4482C36.7044 88.4482 35.7068 88.6826 34.7859 89.3077C34.4022 89.5421 34.0185 89.8546 33.7883 90.1672L33.4813 90.4797V90.089C33.4046 88.8389 33.558 87.1199 34.7092 86.4167C35.4766 85.9479 36.244 85.7135 37.0882 85.7916C37.6253 85.7916 38.1625 85.8698 38.6997 86.026C39.2369 86.1042 39.8509 86.2604 40.388 86.2604C41.2322 86.3386 42.2298 86.2604 42.8438 85.5572C43.5345 84.9322 43.5345 83.9164 43.381 83.0569C43.381 82.9007 43.3042 82.6663 43.3042 82.51C43.2275 82.1975 43.074 81.9631 42.9973 81.8068ZM10.7658 95.9491C10.3821 96.0273 9.8449 96.0273 9.38445 96.0273C5.16366 96.0273 0.635905 93.6051 0.635905 88.8389C0.482422 86.8074 0.942872 84.9322 0.0219727 82.9788C3.3986 82.51 4.3195 84.1508 4.54973 85.9479C4.77995 87.9794 4.16602 89.7765 5.16366 91.6517C6.00782 93.2926 7.61939 94.4646 9.99838 94.4646C10.3053 94.4646 10.5356 94.4646 10.7658 94.4646V92.3549C10.7658 89.9328 10.7658 87.6669 10.6123 85.7916C10.4588 82.9788 10.3821 82.7444 10.3821 82.7444C10.8425 82.5881 11.4565 82.4319 11.9169 82.4319C13.2215 82.4319 14.1424 83.1351 14.1424 84.229C14.1424 86.8074 14.0657 89.1514 14.0657 91.5736C14.0657 95.4022 14.0657 99.1526 14.6029 102.981C13.8355 103.059 13.2983 103.294 12.6843 103.294C11.6867 103.294 10.8425 102.825 10.8425 101.262L10.7658 95.9491ZM16.5982 96.1054C16.5982 100.168 19.3609 103.059 22.9677 103.059C27.4955 103.059 28.4164 99.5433 28.4164 99.5433L28.2629 99.387C28.2629 99.387 26.2676 100.95 24.0421 100.95C21.2794 100.95 19.7446 98.6838 19.7446 95.4022L19.8213 95.324C19.8213 95.324 21.2027 96.1054 22.8142 96.1054C25.1932 96.1054 28.0326 95.0896 28.0326 92.3549C28.0326 90.4797 26.6513 88.3701 23.0444 88.3701C19.0539 88.3701 16.5982 92.2768 16.5982 96.1054ZM19.7446 94.0739C19.7446 92.98 20.7422 89.6984 22.6607 89.6984C24.2723 89.6984 24.8095 91.0266 24.8095 92.2768C24.8095 93.9958 23.5049 94.699 22.277 94.699C21.1259 94.699 19.7446 94.3083 19.7446 94.0739ZM44.9158 99.3089C44.9158 101.262 46.2204 102.981 48.5227 102.981C50.211 102.981 51.5923 102.044 52.2062 100.872H52.3597C52.3597 102.356 53.5109 102.825 54.662 102.825C56.9642 102.825 57.6549 101.106 57.6549 101.106L57.5014 101.028C57.5014 101.028 57.041 101.419 56.5038 101.419C55.1992 101.419 55.1224 99.4652 55.1224 98.3713V98.0588C55.1224 96.4961 55.1992 94.6208 55.1992 93.2144C55.1992 90.636 54.662 88.2919 50.8249 88.3701C48.4459 88.3701 46.2204 90.089 45.8367 91.7299L45.9134 91.808C46.9111 90.9485 48.3692 90.1672 49.6738 90.1672C51.7458 90.1672 52.283 91.4173 52.283 93.7614V93.9958C49.3668 94.0739 44.9158 95.2459 44.9158 99.3089ZM47.9855 98.762C47.9855 95.7929 51.2086 95.324 52.283 95.0896C52.283 96.5742 52.2062 97.9806 52.2062 99.0745C52.2062 100.168 50.7482 101.028 49.8273 101.028C48.8296 101.028 47.9855 100.403 47.9855 98.762ZM180.979 102.512C180.365 102.591 179.674 102.747 179.137 102.747C178.216 102.747 177.525 102.356 177.525 100.95C177.525 100.403 177.525 99.8558 177.525 99.3089C177.525 98.3713 177.602 97.5118 177.525 96.4961C177.295 96.5742 177.065 96.5742 176.835 96.5742C175.683 98.3713 173.611 102.669 170.695 102.669C169.237 102.669 168.623 102.434 168.623 102.434V102.278C170.158 101.184 172.307 98.4494 173.918 96.3398C172.384 96.3398 171.232 95.9491 170.465 95.4022C168.393 93.9958 168.316 90.7141 170.465 89.2296C171.309 88.6826 172.46 88.3701 173.765 88.3701C176.911 88.3701 177.602 89.5421 177.602 89.5421H177.679C177.679 89.464 177.679 89.3858 177.679 89.3077C177.679 88.7608 178.523 88.4482 179.674 88.4482C180.134 88.4482 180.518 88.4482 180.979 88.5263C180.441 89.3858 180.365 91.1048 180.365 92.5893C180.365 95.5584 180.441 97.1211 180.441 98.5276C180.595 100.481 180.748 102.278 180.979 102.512ZM177.602 95.2459V93.3707C177.679 92.5893 177.602 91.8861 177.525 91.2611C177.295 90.0109 176.144 89.3077 174.609 89.3077C172.844 89.3077 171.846 90.7922 171.846 92.2768C171.846 93.6832 172.614 94.8552 174.379 95.4022C175.07 95.4803 176.067 95.7147 177.602 95.2459ZM60.0339 106.81C60.0339 108.529 60.7246 108.919 61.7222 108.919C62.2594 108.919 62.9501 108.763 63.6407 108.685C63.6407 108.685 63.1036 107.2 63.1036 103.997C63.1036 103.606 63.1036 103.137 63.1036 102.669C63.564 102.825 63.9477 102.825 64.4849 102.825C69.8568 102.825 72.466 99.3089 72.466 94.6208C72.466 91.1048 70.5475 88.2919 67.4778 88.2919C64.1012 88.2919 63.1036 90.4797 63.1036 90.4797L62.9501 90.4016C62.9501 90.3234 63.0268 90.1672 63.0268 89.9328C63.0268 89.0733 62.0292 88.4482 60.8013 88.4482C60.3409 88.4482 59.9571 88.5263 59.4967 88.6826C60.0339 90.1672 60.1106 93.2926 60.1106 95.871C60.1106 101.419 60.0339 104.153 60.0339 106.81ZM63.0268 100.637V97.1993C63.0268 95.871 63.0268 94.6208 63.1803 93.4488C63.4105 91.3392 64.6384 90.089 66.25 90.089C68.0918 90.089 69.1661 92.6675 69.1661 95.2459C69.1661 98.3713 67.7848 101.497 64.8686 101.575C63.871 101.575 63.0268 101.34 63.0268 100.637ZM141.687 102.356C142.378 102.512 143.068 102.669 143.605 102.669C144.603 102.669 145.371 102.278 145.371 100.793C145.294 98.9182 145.217 97.4337 145.217 95.324L145.371 95.4022C146.215 95.6366 148.67 102.591 152.507 102.512C153.966 102.512 154.58 102.278 154.58 102.278V102.122C152.354 100.481 148.901 95.7929 147.596 93.9958V93.9176C150.129 91.6517 152.968 89.9328 152.968 88.8389C152.968 88.5263 152.584 88.2919 151.663 88.2919C150.973 88.2919 150.205 88.5263 150.205 88.5263C150.052 89.6202 149.208 90.2453 145.678 93.9176L145.294 94.3083H145.217V92.2768L145.294 90.4016C145.294 88.6826 143.989 87.9794 141.84 88.3701C142.224 89.3077 142.147 89.0733 142.301 91.5736C142.378 93.9958 142.378 90.7141 142.378 94.152C142.378 96.8867 142.147 102.044 141.687 102.356ZM74.3846 102.512C74.9985 102.591 75.7659 102.825 76.3031 102.825C77.224 102.825 77.9914 102.356 77.9914 100.872C77.9914 99.0745 77.9147 97.5899 77.9147 95.4803H78.0682C78.9123 95.7929 81.368 102.669 85.1284 102.669C86.6632 102.669 87.2772 102.434 87.2772 102.434V102.278C85.0517 100.637 81.5983 95.871 80.2937 94.152V94.0739C82.8261 91.808 85.6656 90.0109 85.6656 88.9952C85.6656 88.6826 85.2819 88.4482 84.361 88.4482C83.6703 88.4482 82.9029 88.6826 82.9029 88.6826C82.6727 89.7765 81.9052 90.4016 78.3751 94.0739L77.9914 94.3864H77.8379V92.4331L77.9914 90.5578C77.9914 88.8389 76.6868 88.0575 74.538 88.5263C74.9218 89.464 74.845 89.1514 74.9985 91.7299C75.0752 94.152 74.9985 90.7922 75.0752 94.3083C75.0752 96.9649 74.845 102.122 74.3846 102.512ZM87.8911 106.107C87.9678 107.826 87.7376 108.841 89.6561 108.841C91.8816 108.841 94.1072 107.044 95.5652 102.903L99.5558 91.3392C100.246 89.2296 100.937 88.7608 100.937 88.7608V88.6826C100.937 88.6826 100.553 88.4482 99.7093 88.4482C97.3303 88.4482 98.7884 89.3858 95.0281 100.403C93.8769 97.2774 92.0351 91.9643 91.4212 89.6202C91.191 88.7608 90.2701 88.4482 89.3492 88.4482C88.4283 88.4482 87.8911 88.5263 87.3539 88.6826V88.8389C87.8143 89.2296 88.1213 89.8546 88.4283 90.4797C89.4259 92.6675 91.1142 97.9806 91.8816 100.481C92.1886 101.809 93.3397 102.356 94.2606 102.591L93.8002 103.606C92.8793 105.638 91.5747 106.341 89.9631 106.341C89.3492 106.341 88.6585 106.263 87.8911 106.107ZM108.228 90.7922C107.537 88.5263 104.544 88.4482 104.544 88.4482L100.477 100.012C99.786 102.044 99.0954 102.512 99.0954 102.512V102.669C99.0954 102.669 99.4791 102.903 100.323 102.903C102.702 102.903 101.321 101.809 104.928 91.1048H105.081C106.309 94.152 108.074 99.3089 108.611 101.731C108.842 102.591 109.839 102.825 110.76 102.825C111.681 102.825 112.218 102.747 112.832 102.669V102.512C112.295 102.044 111.988 101.419 111.681 100.872C110.683 98.6057 108.995 93.2926 108.228 90.7922ZM114.06 100.325C114.06 101.34 114.827 101.965 115.902 102.356C119.048 103.528 123.96 103.372 125.571 99.6996C126.953 96.4179 125.494 91.4955 121.197 91.4955C117.897 91.4955 116.823 93.6832 116.823 93.6832H116.746C116.746 93.6832 116.976 94.3864 116.976 92.1987C116.976 88.917 116.823 88.0575 113.446 87.9794L113.369 88.1357C113.906 88.6826 113.983 90.5578 113.983 93.1363C113.983 95.1678 113.983 95.871 113.983 97.9806C113.983 99.3089 114.06 98.8401 114.06 100.325ZM116.899 97.1211C116.899 95.7929 116.823 97.8244 116.976 96.6523C117.206 94.5427 118.434 93.2926 120.046 93.2926C122.885 93.2926 123.96 98.6057 122.041 100.403C120.813 101.575 119.202 101.262 118.357 100.715C117.206 100.012 116.976 98.6838 116.899 97.1211ZM127.873 95.9491C127.873 99.7777 130.79 102.825 134.396 102.825C138.924 102.825 139.999 99.0745 139.999 99.0745L139.922 98.9182C139.922 98.9182 137.62 100.715 135.548 100.793C132.785 100.793 131.02 98.1369 130.943 94.8552C130.943 92.5112 131.941 89.464 134.627 89.464C136.929 89.464 138.464 91.9643 138.464 91.9643H138.617C139.078 91.4955 139.538 90.636 139.538 90.089C139.538 88.6826 136.315 88.1357 135.164 88.1357C130.79 88.1357 127.797 91.6517 127.873 95.9491ZM155.04 99.4652C155.04 101.497 156.345 103.137 158.647 103.137C160.335 103.137 161.716 102.2 162.33 101.028L162.407 101.106C162.484 102.512 163.635 102.981 164.709 102.981C167.088 102.981 167.779 101.262 167.779 101.262L167.626 101.184C167.626 101.184 167.165 101.575 166.628 101.575C165.247 101.575 165.247 99.6214 165.247 98.5276V98.215C165.247 96.6523 165.323 94.8552 165.323 93.3707C165.323 90.8704 164.786 88.5263 160.949 88.5263C158.57 88.5263 156.345 90.2453 155.961 91.8861L156.038 91.9643C157.035 91.1048 158.417 90.3234 159.798 90.3234C161.87 90.3234 162.407 91.6517 162.407 93.9176V94.2302C159.414 94.2302 155.04 95.4803 155.04 99.4652ZM158.11 98.9182C158.11 96.0273 161.256 95.4803 162.407 95.324C162.407 96.7305 162.33 98.215 162.33 99.3089C162.33 100.325 160.796 101.184 159.875 101.184C158.954 101.184 158.11 100.559 158.11 98.9182ZM117.744 122.202C117.744 119.78 120.353 119.389 121.274 119.233C121.274 120.405 121.197 121.577 121.197 122.515C121.197 123.374 119.969 124.078 119.202 124.078C118.434 124.078 117.744 123.609 117.744 122.202ZM115.211 122.671C115.211 124.312 116.285 125.718 118.204 125.718C119.585 125.718 120.736 124.937 121.197 123.921L121.274 123.999C121.35 125.171 122.271 125.562 123.192 125.562C125.187 125.562 125.725 124.156 125.725 124.156L125.648 124.078C125.648 124.078 125.187 124.39 124.804 124.39C123.653 124.39 123.653 122.749 123.653 121.89V121.577C123.653 120.327 123.729 118.843 123.729 117.592C123.729 115.561 123.269 113.608 120.046 113.608C118.127 113.608 116.285 115.014 115.902 116.42L116.055 116.498C116.823 115.717 118.051 115.092 119.125 115.092C120.813 115.092 121.274 116.186 121.274 118.139V118.296C118.818 118.374 115.134 119.311 115.211 122.671ZM102.625 122.124C102.625 123.999 103.239 125.718 106.156 125.718C108.918 125.718 109.762 123.765 109.762 123.765H109.839C109.839 123.765 109.839 123.921 109.839 123.999C109.993 124.859 110.453 125.328 110.914 125.406C111.604 125.64 112.372 125.328 112.755 124.781C113.6 125.796 110.99 126.656 112.141 129C111.988 127.047 116.362 126.578 113.83 123.062C113.83 123.687 113.369 124.234 112.755 123.999C112.295 123.921 112.065 123.14 112.065 122.046C112.065 119.468 112.218 117.358 112.218 115.248C112.218 114.311 111.374 113.764 110.3 113.764C109.916 113.764 109.609 113.842 109.225 113.92C109.225 113.92 109.455 114.467 109.609 116.03C109.686 116.811 109.686 118.061 109.686 119.546C109.686 121.499 109.149 124.312 107 124.312C105.235 124.312 105.158 122.671 105.081 120.796C105.081 118.53 105.158 117.124 105.158 115.17C105.158 114.311 104.237 113.764 103.239 113.764C102.932 113.764 102.549 113.842 102.165 113.92C102.395 114.311 102.549 115.248 102.625 116.186C102.702 117.28 102.702 118.452 102.702 118.999C102.702 120.171 102.625 121.187 102.625 122.124ZM89.1957 122.124C89.1957 123.999 89.8096 125.796 92.7258 125.796C95.4118 125.796 96.3327 123.765 96.3327 123.765L96.4094 123.843C96.4094 123.843 96.4094 123.921 96.4094 123.999C96.4094 125.25 97.3303 125.64 98.1745 125.64C100.17 125.64 100.707 124.234 100.707 124.234L100.63 124.156C100.63 124.156 100.17 124.468 99.786 124.468C98.7116 124.468 98.6349 122.984 98.6349 122.124C98.6349 119.546 98.7884 117.358 98.7884 115.248C98.7884 114.311 97.9442 113.764 96.8699 113.764C96.4861 113.764 96.1792 113.842 95.7955 113.998C95.7955 113.998 96.0257 114.467 96.1792 116.03C96.2559 116.811 96.2559 118.061 96.2559 119.546C96.2559 121.499 95.642 124.312 93.57 124.312C91.8049 124.312 91.6514 122.671 91.6514 120.874C91.6514 118.53 91.7282 117.124 91.7282 115.248C91.7282 114.311 90.8073 113.764 89.8096 113.764C89.4259 113.764 89.1189 113.92 88.7352 113.998C88.9655 114.389 89.1189 115.248 89.1957 116.186C89.2724 117.28 89.2724 118.452 89.2724 118.999C89.2724 120.171 89.1957 121.187 89.1957 122.124ZM69.0894 125.484C69.6266 125.562 70.1638 125.718 70.6242 125.718C71.4684 125.718 72.0823 125.406 72.0823 124.156C72.0823 121.968 72.0056 120.405 72.0056 118.374C72.0056 116.264 73.2334 115.17 74.2311 115.17C76.1496 115.17 76.2264 116.655 76.2264 118.139C76.2264 120.483 76.1496 121.968 76.1496 123.921C76.1496 125.484 76.9938 125.562 77.7612 125.718C78.1449 125.25 78.6821 124.937 78.6821 123.296C78.6821 123.14 78.6054 119.233 78.6054 119.233C78.6054 118.139 78.9123 115.17 80.9843 115.17C82.8261 115.17 82.9029 116.655 82.9029 118.139C82.9029 120.483 82.8261 121.89 82.8261 123.843C82.8261 125.171 83.9005 125.64 84.8214 125.64C86.8167 125.64 87.3539 124.234 87.3539 124.234L87.2772 124.156C87.2772 124.156 86.8167 124.468 86.433 124.468C85.2819 124.468 85.2819 123.14 85.2819 122.124C85.2819 120.171 85.3586 118.608 85.3586 116.967C85.3586 115.326 85.0517 113.764 82.0587 113.764C80.6006 113.764 78.9891 114.545 78.5286 115.639H78.4519C78.3751 114.623 77.4542 113.764 75.3822 113.842C73.9241 113.842 72.3125 114.545 71.9288 115.639H71.7754C71.7754 115.639 71.9288 115.405 71.9288 115.092C71.9288 114.389 71.1614 113.842 70.1638 113.842C69.7801 113.842 69.3964 113.92 69.0127 113.998C69.0127 113.998 69.3964 114.233 69.4731 116.42C69.5499 117.514 69.6266 118.764 69.6266 119.858C69.6266 123.999 69.2429 125.406 69.0894 125.484ZM55.3527 125.484C55.8898 125.64 56.5038 125.718 56.9642 125.718C57.7316 125.718 58.3456 125.406 58.3456 124.156C58.3456 121.968 58.2688 120.483 58.2688 118.374C58.2688 116.264 59.7269 115.092 60.9548 115.092C62.8733 115.092 62.9501 116.655 62.9501 118.217C62.9501 120.561 62.8733 121.89 62.8733 123.843C62.8733 125.25 63.871 125.718 64.8686 125.718C66.7871 125.718 67.4011 124.312 67.4011 124.312L67.3243 124.234C67.3243 124.234 66.8639 124.546 66.4034 124.546C65.3291 124.546 65.3291 123.14 65.3291 122.124C65.3291 120.171 65.4058 118.686 65.4058 116.967C65.4058 115.326 65.0988 113.686 62.1059 113.686C60.4943 113.686 58.7293 114.467 58.1921 115.717L58.1154 115.639C58.1154 115.639 58.1921 115.405 58.1921 115.092C58.1921 114.389 57.4247 113.842 56.427 113.842C56.0433 113.842 55.7364 113.92 55.3527 114.076C55.3527 114.076 55.6596 114.233 55.8131 116.498C55.8131 117.592 55.8898 118.764 55.8898 119.936C55.8898 123.999 55.5061 125.406 55.3527 125.484Z" fill="white"/>
<path fill-rule="evenodd" clip-rule="evenodd" d="M87.124 21.3307C87.5844 26.1751 91.4215 27.5815 92.9563 29.066C96.1795 32.1133 90.8076 37.4264 87.2007 33.5197C84.438 30.5506 86.51 22.8153 87.124 21.3307ZM114.521 42.1926C116.362 39.0673 117.897 36.3326 117.283 31.0975C116.439 23.0497 123.423 23.4404 123.116 30.3943C122.886 35.3168 119.355 38.0515 114.521 42.1926ZM60.4179 49.0685C59.9574 49.5373 59.3435 49.8498 57.9622 49.9279C59.2668 48.2871 59.804 46.8807 60.0342 44.7711C59.804 45.2399 58.9598 45.6306 58.4993 45.5524C60.6481 43.4428 60.1877 40.0049 61.876 34.6917C62.4132 33.0509 63.0271 31.4882 63.8713 29.9255C68.092 21.6433 74.1546 13.4392 91.268 12.7359C84.0543 19.5336 81.9055 30.4725 85.4356 39.5361C84.0543 39.6142 80.8311 39.9267 79.68 42.3489C82.059 39.8486 85.9728 40.3174 88.889 41.3332C92.3424 42.5052 94.4911 44.7711 97.0236 46.9588C101.168 50.553 103.777 52.272 109.149 52.6627C109.456 52.6627 104.698 51.8813 103.47 50.4749C107.307 49.2247 111.528 46.0994 113.6 43.4428C114.444 46.4119 114.751 49.381 114.444 52.272C116.593 51.8813 118.895 51.1 121.504 49.9279C121.12 51.4906 120.43 55.788 117.13 57.2726C107.998 60.8668 96.2562 54.3816 94.0307 53.6003C95.2586 55.163 107.614 62.5076 116.823 58.6009C108.995 68.3677 99.0956 62.1951 96.3329 61.9607C99.0189 63.6796 103.93 65.9455 108.765 64.8516C96.1027 71.3368 77.6847 67.0394 75.1523 54.4597C76.9173 70.868 97.4841 71.8056 108.074 66.805C91.6517 85.1666 62.7201 76.1811 60.4179 49.0685ZM112.372 41.3332C109.993 36.7232 108.842 37.8952 104.621 35.8637C103.623 35.3949 102.933 34.4573 103.47 33.4416C103.777 32.6602 105.081 31.7226 107.46 32.7384C110.607 34.0667 111.758 37.6608 112.372 41.3332ZM113.984 41.4894C113.83 38.2859 112.295 33.8322 108.458 31.0975C106.309 29.5349 104.468 28.2066 103.777 24.6124C103.316 22.2684 104.161 19.4555 106.616 18.2054C109.993 16.4864 113.063 18.2835 114.521 21.4089C117.13 27.1908 116.362 38.0515 113.984 41.4894ZM78.6056 19.0648C79.8335 19.0648 80.8311 20.0806 80.8311 21.2526C80.8311 22.4246 79.8335 23.4404 78.6056 23.4404C77.4545 23.4404 76.4569 22.4246 76.4569 21.2526C76.4569 20.0806 77.4545 19.0648 78.6056 19.0648ZM78.0685 20.1587C78.6824 20.1587 79.1428 20.6275 79.1428 21.2526C79.1428 21.7995 78.6824 22.3465 78.0685 22.3465C77.4545 22.3465 76.9941 21.7995 76.9941 21.2526C76.9941 20.6275 77.4545 20.1587 78.0685 20.1587ZM67.4781 21.7214C69.2432 19.0648 71.4687 17.3459 73.7709 15.9395C76.3801 14.3768 78.6824 13.2048 80.6009 11.5639C91.3447 2.10966 75.9964 -6.56327 76.1499 7.11026C76.1499 9.29803 76.3801 11.0951 74.9988 12.2671C76.8406 -0.703183 66.7107 3.82862 70.3176 9.9231C71.4687 11.7983 72.6198 12.9703 70.778 15.08C71.8524 6.71959 63.4108 9.29803 68.3223 15.2362C69.6269 16.7989 67.1711 18.9086 67.4781 21.7214Z" fill="white"/>
</svg>
