<svg width="74" height="25" viewBox="0 0 74 25" fill="none" xmlns="http://www.w3.org/2000/svg">
<path d="M28.305 24.9931C28.7766 24.9931 29.1634 24.6054 29.1634 24.1208V0.872274C29.1634 0.399792 28.7766 0 28.305 0C27.8335 0 27.4467 0.387677 27.4467 0.872274V24.1329C27.4587 24.6054 27.8335 24.9931 28.305 24.9931ZM73.1346 24.9931C73.6061 24.9931 73.993 24.6054 73.993 24.1208V16.3551C74.0897 13.7262 73.183 11.3759 71.1881 10.1765C68.3228 8.40775 64.986 9.61924 64.986 9.61924C64.986 9.61924 63.8254 10.0917 64.2727 10.9155C64.6112 11.5334 65.4091 11.1336 65.4091 11.1336C65.4091 11.1336 68.2503 10.0796 70.5595 11.7515C71.8289 12.6722 72.2642 14.2714 72.2642 15.7615C72.2642 18.5479 72.2642 21.3344 72.2642 24.1208C72.2762 24.6054 72.651 24.9931 73.1346 24.9931ZM13.5311 15.7615H8.13899C7.66748 15.7615 7.26851 16.1492 7.26851 16.6217C7.26851 17.0941 7.65539 17.4818 8.13899 17.4818H14.2686L17.2548 24.3873C17.4483 24.8235 17.956 25.0294 18.3792 24.8356C18.8144 24.6417 19.0079 24.1329 18.8144 23.6968L9.95248 3.16199C9.75904 2.72586 9.25127 2.5199 8.81603 2.71374C8.38079 2.90758 8.18735 3.41641 8.38079 3.85254L13.5311 15.7615ZM39.851 10.4552C40.1411 10.0675 40.0686 9.53444 39.6938 9.24368C39.319 8.95292 38.775 9.03773 38.4848 9.41329L35.8492 12.9266C35.559 13.3143 35.6316 13.8473 36.0064 14.1381C36.3811 14.4168 36.9252 14.3441 37.2153 13.9685L39.851 10.4552ZM8.06645 9.64347C8.25989 9.20734 8.05436 8.69851 7.63121 8.50467C7.19597 8.31083 6.68819 8.51679 6.49475 8.95292L0.0749828 23.6968C-0.118457 24.1329 0.0749828 24.6417 0.510221 24.8356C0.94546 25.0294 1.45324 24.8235 1.64668 24.3873L8.06645 9.64347ZM22.6228 24.9931C23.0943 24.9931 23.4812 24.6054 23.4812 24.1208V0.872274C23.4812 0.399792 23.0943 0 22.6228 0C22.1513 0 21.7644 0.387677 21.7644 0.872274V24.1329C21.7765 24.6054 22.1513 24.9931 22.6228 24.9931ZM56.8615 19.2627C56.8615 19.2627 56.922 18.4268 56.1482 18.3662C55.3745 18.3056 55.2294 19.0446 55.2294 19.0446C55.2294 19.0446 55.0722 20.6317 53.1257 22.1703C51.409 23.5272 49.2932 23.4302 49.2932 23.4302L49.3053 24.9931C49.3053 24.9931 51.953 25.2111 54.2985 23.2001C56.6439 21.1769 56.8615 19.2627 56.8615 19.2627ZM44.3001 23.188C46.6455 25.199 49.3174 24.981 49.3174 24.981L49.3053 23.406C49.3053 23.406 47.1896 23.5151 45.4728 22.1582C43.5384 20.6196 43.3691 19.0325 43.3691 19.0325C43.3691 19.0325 43.212 18.2935 42.4503 18.3541C41.6765 18.4147 41.737 19.2506 41.737 19.2506C41.737 19.2506 41.9546 21.1769 44.3001 23.188ZM56.1482 15.6767C56.922 15.6161 56.8615 14.7802 56.8615 14.7802C56.8615 14.7802 56.6439 12.866 54.2985 10.855C51.953 8.84389 49.3053 9.06196 49.3053 9.06196L49.2932 10.6248C49.2932 10.6248 51.409 10.5279 53.1257 11.8847C55.0601 13.4233 55.2294 15.0104 55.2294 15.0104C55.2294 15.0104 55.3745 15.7494 56.1482 15.6767ZM49.3053 10.6369L49.3174 9.06196C49.3174 9.06196 46.6455 8.84389 44.3001 10.855C41.9546 12.866 41.737 14.7802 41.737 14.7802C41.737 14.7802 41.6765 15.6161 42.4503 15.6767C43.2241 15.7373 43.3691 14.9983 43.3691 14.9983C43.3691 14.9983 43.5263 13.4112 45.4728 11.8726C47.1896 10.5157 49.3053 10.6369 49.3053 10.6369ZM39.8268 24.775C40.2016 24.4842 40.262 23.9512 39.9719 23.5635L33.1773 14.441C32.8871 14.0654 32.3431 13.9927 31.9683 14.2835C31.5935 14.5742 31.5331 15.1073 31.8232 15.495L38.6178 24.6175C38.92 24.9931 39.452 25.0658 39.8268 24.775ZM60.7787 24.9931C61.2502 24.9931 61.6371 24.6054 61.6371 24.1208V10.0675C61.6371 9.59501 61.2502 9.19522 60.7787 9.19522C60.3072 9.19522 59.9203 9.5829 59.9203 10.0675V24.1208C59.9324 24.6054 60.3072 24.9931 60.7787 24.9931Z" fill="white"/>
</svg>
