<svg width="184" height="76" viewBox="0 0 184 76" fill="none" xmlns="http://www.w3.org/2000/svg">
<path d="M0.0402832 53.831C37.0801 66.5069 65.9559 73.008 90.3686 76.0079H91.4407C121.905 73.1354 152.393 65.2974 184.001 55.319V49.7489H0.0402832V53.831Z" fill="url(#paint0_linear)"/>
<path d="M0.0402832 53.831C37.0801 66.5069 65.9559 73.008 90.3686 76.0079H91.4407C121.905 73.1354 152.393 65.2974 184.001 55.319V49.7489H0.0402832V53.831Z" fill="#6D6D6D"/>
<path d="M183.96 51.8735C152.353 61.8758 121.865 69.1806 91.4004 72.0532H90.3283C65.9157 69.0613 37.0398 63.1012 0 50.4253V0H183.96V51.8735Z" fill="url(#paint1_radial)"/>
<path d="M183.96 51.8735C152.353 61.8758 121.865 69.1806 91.4004 72.0532H90.3283C65.9157 69.0613 37.0398 63.1012 0 50.4253V0H183.96V51.8735Z" fill="#2F2F2F"/>
<path d="M44.4096 38.3621C43.5042 38.3621 42.9007 38.3621 42.7498 38.3143C42.4341 38.2498 42.1328 38.1284 41.8603 37.9563C41.472 37.7108 41.1124 37.4226 40.7882 37.0969C40.3297 36.6289 39.9248 36.1111 39.5811 35.5532L34.9034 28.5189L43.6392 16.0101C43.685 15.9425 43.7117 15.8639 43.7166 15.7824C43.7214 15.7009 43.7042 15.6196 43.6668 15.5471C43.6294 15.4746 43.5732 15.4135 43.504 15.3704C43.4349 15.3272 43.3554 15.3035 43.2739 15.3019H38.5089C38.4353 15.3021 38.3628 15.3203 38.2977 15.355C38.2327 15.3897 38.177 15.4397 38.1357 15.5008L31.29 25.5429C30.5875 25.9157 29.828 26.1685 29.0425 26.2909C28.2149 26.4208 27.3786 26.4873 26.5409 26.4898H25.1908V17.3946C25.1908 16.8396 24.9707 16.3073 24.5791 15.9148C24.1874 15.5224 23.6561 15.3019 23.1021 15.3019H19.0599C18.9124 15.3019 18.771 15.3606 18.6668 15.465C18.5625 15.5695 18.5039 15.7112 18.5039 15.8589V17.6015C18.499 17.8022 18.5601 17.999 18.6778 18.1615C18.7955 18.324 18.9632 18.4432 19.1552 18.5007C19.7111 18.6519 20.3702 19.1452 20.3543 20.6333V42.6829C20.3543 42.7675 20.371 42.8513 20.4033 42.9295C20.4356 43.0077 20.483 43.0788 20.5428 43.1386C20.6025 43.1985 20.6734 43.246 20.7514 43.2784C20.8295 43.3108 20.9131 43.3274 20.9976 43.3274H24.5952C24.6797 43.3274 24.7633 43.3108 24.8413 43.2784C24.9194 43.246 24.9903 43.1985 25.05 43.1386C25.1098 43.0788 25.1572 43.0077 25.1895 42.9295C25.2218 42.8513 25.2385 42.7675 25.2385 42.6829V31.4154H27.0015C27.6846 31.4142 28.3667 31.3637 29.0425 31.2642C29.6171 31.1801 30.1814 31.0361 30.7261 30.8345L35.7055 38.7918C36.234 39.6853 36.8657 40.5133 37.5877 41.2585C38.1209 41.8005 38.7343 42.2567 39.4063 42.6113C39.9813 42.9043 40.6015 43.098 41.2409 43.1842C41.8547 43.2602 42.4727 43.2974 43.0913 43.2956H43.8854C44.174 43.2956 44.4507 43.1807 44.6548 42.9763C44.8588 42.7719 44.9734 42.4946 44.9734 42.2055V38.943C44.9735 38.7916 44.9146 38.6462 44.8093 38.5377C44.704 38.4293 44.5606 38.3662 44.4096 38.3621Z" fill="#203668"/>
<path d="M71.5622 18.7951C68.7245 16.0253 64.9136 14.4848 60.9521 14.5061C57.0532 14.5002 53.2944 15.9629 50.4215 18.6041C49.0338 19.8977 47.9139 21.4524 47.1257 23.1795C46.3056 24.9797 45.8882 26.9379 45.9027 28.9167C45.8905 30.9428 46.2848 32.9506 47.0622 34.821C48.5517 38.4236 51.4084 41.2858 55.0038 42.7783C58.7491 44.3038 62.9408 44.3038 66.686 42.7783C68.4515 42.083 70.0747 41.0689 71.4748 39.7864C72.8558 38.475 73.9696 36.9076 74.7547 35.1711C75.5753 33.3542 75.9926 31.3805 75.9777 29.3862C75.9926 27.3755 75.5896 25.3837 74.7944 23.5376C74.0328 21.7624 72.9352 20.1519 71.5622 18.7951ZM70.2756 33.0147C69.7505 34.1879 69.0096 35.2515 68.0917 36.1499C67.1608 37.0482 66.0661 37.7587 64.8674 38.2426C63.6092 38.7679 62.2596 39.0384 60.8965 39.0384C59.5649 39.0431 58.2444 38.7947 57.0051 38.3063C55.8058 37.836 54.7003 37.1542 53.7411 36.2931C52.7943 35.4366 52.0299 34.3973 51.4936 33.2375C50.9504 32.0304 50.6793 30.7182 50.6995 29.3941C50.6928 28.0278 50.963 26.6742 51.4936 25.4155C51.9899 24.2222 52.7189 23.1401 53.6379 22.2326C54.5657 21.3363 55.6653 20.6379 56.8701 20.1796C58.158 19.6871 59.526 19.4389 60.9045 19.4475C62.2473 19.4382 63.5802 19.6783 64.8356 20.1557C66.0332 20.615 67.1328 21.2982 68.0758 22.1689C69.0112 23.0378 69.7644 24.0846 70.2915 25.2484C70.8321 26.4704 71.103 27.795 71.0857 29.1316C71.0945 30.469 70.8183 31.7928 70.2756 33.0147Z" fill="#203668"/>
<path d="M103.003 35.3064C102.933 35.2114 102.842 35.1333 102.738 35.0777C102.634 35.0222 102.519 34.9906 102.401 34.9852C102.283 34.9799 102.165 35.001 102.057 35.0469C101.948 35.0928 101.851 35.1624 101.772 35.2507C101.288 35.8077 100.978 36.1658 100.859 36.2613C100.143 36.9232 99.3419 37.4853 98.4763 37.9323C97.0294 38.654 95.4306 39.0169 93.8146 38.9906C92.4829 38.9955 91.1624 38.7471 89.9232 38.2586C88.7238 37.7883 87.6184 37.1065 86.6591 36.2454C85.7122 35.389 84.9477 34.3496 84.4117 33.1898C83.8685 31.9826 83.5973 30.6704 83.6175 29.3464C83.6106 27.98 83.8808 26.6264 84.4117 25.3678C84.9079 24.1744 85.6369 23.0923 86.5559 22.1849C87.4718 21.3025 88.5546 20.6126 89.7405 20.1558C91.0284 19.6633 92.3964 19.415 93.7749 19.4237C95.2042 19.402 96.6229 19.6727 97.9442 20.2194C98.7153 20.5567 99.4454 20.9812 100.12 21.4846C100.239 21.5721 100.652 21.9302 101.248 22.4713C101.309 22.5261 101.379 22.5681 101.456 22.595C101.533 22.6219 101.615 22.6331 101.696 22.6279C101.778 22.6227 101.857 22.6013 101.93 22.5648C102.003 22.5283 102.068 22.4776 102.122 22.4156L104.504 19.6624C104.61 19.543 104.664 19.3864 104.655 19.2268C104.647 19.0673 104.575 18.9178 104.456 18.811C104.091 18.4768 103.217 17.697 103.003 17.5299C102.007 16.7819 100.924 16.1567 99.7787 15.6678C97.9044 14.8756 95.8885 14.4749 93.8543 14.4902C89.9575 14.4832 86.2008 15.9462 83.3316 18.5882C81.9436 19.8815 80.8236 21.4363 80.0358 23.1636C79.2173 24.9616 78.7999 26.9167 78.8128 28.8928C78.8005 30.9189 79.1948 32.9268 79.9723 34.7971C80.7094 36.5812 81.7902 38.2022 83.1529 39.5675C84.5156 40.9329 86.1334 42.0158 87.9139 42.7544C89.8624 43.5522 91.9518 43.9465 94.0564 43.9137C96.161 43.8809 98.2372 43.4216 100.16 42.5635C101.375 42.0079 102.515 41.2993 103.551 40.4548C103.773 40.2718 104.456 39.6033 104.996 39.0623C105.131 38.9279 105.213 38.7496 105.228 38.5598C105.242 38.37 105.188 38.1812 105.076 38.0278L103.003 35.3064Z" fill="#203668"/>
<path d="M132.3 18.7951C129.462 16.0253 125.651 14.4848 121.69 14.5061C117.799 14.5062 114.05 15.9685 111.183 18.6041C109.795 19.8977 108.675 21.4524 107.887 23.1795C107.067 24.9797 106.65 26.9379 106.664 28.9167C106.652 30.9428 107.046 32.9506 107.824 34.821C109.313 38.4236 112.17 41.2858 115.765 42.7783C119.511 44.3038 123.702 44.3038 127.447 42.7783C129.211 42.0565 130.826 41.0152 132.212 39.7068C133.593 38.3954 134.707 36.8281 135.492 35.0916C136.313 33.2746 136.73 31.3009 136.715 29.3066C136.73 27.2959 136.327 25.3041 135.532 23.458C134.762 21.7111 133.665 20.1283 132.3 18.7951ZM131.037 33.0147C130.511 34.1876 129.771 35.2511 128.853 36.1499C127.922 37.0479 126.827 37.7583 125.629 38.2426C124.371 38.7679 123.021 39.0384 121.658 39.0384C120.326 39.0433 119.006 38.7949 117.767 38.3063C116.567 37.836 115.462 37.1542 114.503 36.2931C113.556 35.4367 112.791 34.3974 112.255 33.2375C111.712 32.0304 111.441 30.7182 111.461 29.3941C111.454 28.0278 111.724 26.6742 112.255 25.4155C112.751 24.2221 113.48 23.1399 114.399 22.2326C115.327 21.3363 116.427 20.6379 117.632 20.1796C118.919 19.6871 120.287 19.4389 121.666 19.4475C123.009 19.438 124.342 19.6781 125.597 20.1557C126.795 20.6152 127.894 21.2984 128.837 22.1689C129.764 23.0322 130.512 24.0707 131.037 25.2245C131.578 26.4466 131.849 27.7711 131.831 29.1077C131.848 30.452 131.578 31.7843 131.037 33.0147Z" fill="#203668"/>
<path d="M164.344 32.792C164.135 32.0579 163.836 31.3523 163.455 30.6913C163.111 30.0929 162.671 29.5552 162.152 29.0998C161.887 28.8709 161.606 28.6608 161.311 28.4712C161.913 27.936 162.388 27.2726 162.7 26.5296C163.145 25.4698 163.367 24.3293 163.352 23.1796C163.371 22.0311 163.155 20.8909 162.716 19.8296C162.311 18.8774 161.701 18.0268 160.929 17.339C160.141 16.6527 159.223 16.133 158.229 15.8112C157.158 15.4609 156.037 15.2863 154.91 15.2939H138.574V18.0233C138.574 18.1256 138.606 18.2254 138.666 18.3083C138.726 18.3911 138.81 18.4529 138.907 18.4848C139.398 18.6052 139.84 18.8761 140.17 19.2598C140.5 19.6435 140.703 20.1208 140.75 20.6253V42.85C140.75 42.9766 140.8 43.0981 140.889 43.1876C140.979 43.2771 141.1 43.3274 141.226 43.3274H154.941C156.103 43.3246 157.259 43.1858 158.388 42.9137C159.52 42.6579 160.596 42.1996 161.565 41.5609C162.502 40.9341 163.284 40.1014 163.852 39.126C164.466 38.0065 164.771 36.7427 164.733 35.4657C164.732 34.5604 164.601 33.6601 164.344 32.792ZM157.554 20.9118C157.89 21.1892 158.15 21.5467 158.311 21.9514C158.472 22.3561 158.528 22.7949 158.475 23.2274C158.514 23.6824 158.451 24.1403 158.292 24.5681C158.132 24.996 157.88 25.3832 157.554 25.7021C156.802 26.2759 155.869 26.5585 154.926 26.4978L145.626 26.5376V20.1718H154.926C155.856 20.1466 156.773 20.4046 157.554 20.9118ZM145.642 31.4472H154.941C155.562 31.4479 156.182 31.5065 156.792 31.6223C157.349 31.72 157.886 31.911 158.38 32.1873C158.816 32.4367 159.182 32.7925 159.444 33.2217C159.733 33.741 159.87 34.3309 159.841 34.9246C159.856 35.4536 159.718 35.9757 159.444 36.4285C159.169 36.8618 158.806 37.233 158.38 37.5186C157.931 37.8194 157.434 38.0426 156.911 38.1791C156.394 38.3225 155.86 38.3974 155.323 38.4019H145.634L145.642 31.4472Z" fill="#203668"/>
<path d="M43.8062 38.0039C42.9009 38.0039 42.2973 38.0039 42.1464 37.9562C41.8308 37.8916 41.5295 37.7703 41.257 37.5981C40.8687 37.3527 40.5091 37.0644 40.1848 36.7387C39.7263 36.2709 39.3214 35.7531 38.9777 35.195L34.3001 28.1608L43.0359 15.6519C43.0817 15.5844 43.1084 15.5057 43.1132 15.4242C43.1181 15.3427 43.1009 15.2615 43.0635 15.1889C43.0261 15.1164 42.9698 15.0554 42.9007 15.0122C42.8315 14.969 42.752 14.9454 42.6706 14.9437H37.9056C37.8319 14.9439 37.7594 14.9622 37.6944 14.9968C37.6293 15.0315 37.5737 15.0816 37.5323 15.1427L30.6866 25.1768C29.9846 25.5504 29.2248 25.8033 28.4391 25.9248C27.6115 26.0547 26.7752 26.1212 25.9375 26.1237H24.6192V17.0365C24.6192 16.4815 24.3992 15.9492 24.0075 15.5567C23.6158 15.1642 23.0845 14.9437 22.5306 14.9437H18.4168C18.2693 14.9437 18.1279 15.0024 18.0237 15.1069C17.9194 15.2113 17.8609 15.353 17.8609 15.5007V17.2434C17.8559 17.4441 17.917 17.6408 18.0347 17.8033C18.1524 17.9658 18.3201 18.085 18.5121 18.1426C19.068 18.2937 19.7272 18.7871 19.7113 20.2751V42.3168C19.7113 42.4877 19.779 42.6517 19.8997 42.7725C20.0203 42.8934 20.1839 42.9613 20.3545 42.9613H23.9521C24.1227 42.9613 24.2863 42.8934 24.407 42.7725C24.5276 42.6517 24.5954 42.4877 24.5954 42.3168V31.0333H26.414C27.0971 31.0321 27.7792 30.9816 28.455 30.8822C29.0297 30.7981 29.5939 30.6541 30.1387 30.4525L35.1181 38.4097C35.6465 39.3033 36.2782 40.1313 37.0002 40.8765C37.5334 41.4185 38.1468 41.8748 38.8189 42.2292C39.3938 42.5225 40.014 42.7162 40.6534 42.8022C41.2672 42.8783 41.8853 42.9155 42.5038 42.9136H43.298C43.5865 42.9136 43.8633 42.7987 44.0673 42.5943C44.2714 42.3898 44.386 42.1125 44.386 41.8234V38.5768C44.3839 38.4242 44.3219 38.2785 44.2134 38.1712C44.1049 38.064 43.9586 38.0039 43.8062 38.0039Z" fill="white"/>
<path d="M70.9586 18.429C68.1229 15.6612 64.3152 14.1209 60.3565 14.1401C56.4575 14.1342 52.6988 15.5969 49.8259 18.2381C48.4382 19.5317 47.3183 21.0864 46.5301 22.8135C45.6963 24.6106 45.2653 26.5689 45.2674 28.5507C45.2551 30.5768 45.6494 32.5846 46.4268 34.455C47.9164 38.0576 50.773 40.9198 54.3685 42.4123C58.1137 43.9378 62.3054 43.9378 66.0506 42.4123C67.8138 41.6905 69.4291 40.6492 70.8156 39.3408C72.1966 38.0294 73.3105 36.462 74.0955 34.7256C74.9161 32.9086 75.3334 30.9349 75.3186 28.9406C75.3334 26.9299 74.9304 24.9382 74.1352 23.092C73.3813 21.3498 72.3033 19.7673 70.9586 18.429ZM69.672 32.6248C69.1569 33.8137 68.4212 34.8938 67.504 35.8078C66.5731 36.706 65.4784 37.4165 64.2797 37.9005C63.0215 38.4258 61.6719 38.6962 60.3088 38.6962C58.9772 38.7011 57.6567 38.4527 56.4174 37.9642C55.2348 37.4762 54.1483 36.781 53.209 35.9112C52.2622 35.0547 51.4977 34.0153 50.9615 32.8556C50.4183 31.6485 50.1472 30.3362 50.1674 29.0122C50.1607 27.6458 50.4309 26.2923 50.9615 25.0336C51.4578 23.8402 52.1868 22.7581 53.1058 21.8507C54.0336 20.9544 55.1331 20.256 56.338 19.7977C57.603 19.3257 58.9432 19.0884 60.293 19.0975C61.6357 19.0881 62.9686 19.3282 64.2241 19.8057C65.4217 20.2649 66.5213 20.9481 67.4643 21.8188C68.3996 22.6877 69.1529 23.7346 69.68 24.8983C70.2205 26.1203 70.4914 27.4449 70.4741 28.7815C70.4799 30.1049 70.2065 31.4146 69.672 32.6248Z" fill="white"/>
<path d="M102.4 34.9404C102.329 34.8454 102.239 34.7673 102.135 34.7117C102.03 34.6562 101.915 34.6246 101.797 34.6192C101.679 34.6139 101.562 34.635 101.453 34.6809C101.344 34.7268 101.247 34.7964 101.169 34.8847C100.684 35.4417 100.374 35.7998 100.255 35.8953C99.5398 36.5571 98.7384 37.1192 97.8728 37.5663C96.4328 38.294 94.8396 38.6651 93.2269 38.6485C91.8953 38.6534 90.5747 38.405 89.3355 37.9164C88.1361 37.4463 87.0306 36.7645 86.0715 35.9032C85.1245 35.0468 84.3601 34.0075 83.824 32.8476C83.2808 31.6405 83.0097 30.3283 83.0299 29.0043C83.023 27.6379 83.2932 26.2843 83.824 25.0256C84.3203 23.8323 85.0493 22.7502 85.9683 21.8427C86.8961 20.9465 87.9956 20.2481 89.2005 19.7897C90.4884 19.2972 91.8564 19.049 93.2349 19.0577C94.6642 19.036 96.083 19.3067 97.4042 19.8534C98.1742 20.1832 98.9042 20.5997 99.5803 21.0947C99.6994 21.1823 100.112 21.5404 100.708 22.0814C100.769 22.1362 100.839 22.1783 100.916 22.2052C100.993 22.232 101.075 22.2432 101.156 22.238C101.238 22.2328 101.317 22.2114 101.39 22.1749C101.463 22.1385 101.528 22.0877 101.582 22.0257L103.964 19.2725C104.07 19.1531 104.124 18.9965 104.115 18.837C104.107 18.6774 104.035 18.5279 103.916 18.4211C103.551 18.0869 102.677 17.3071 102.463 17.14C101.467 16.3921 100.384 15.7669 99.2388 15.278C97.365 14.483 95.3491 14.0796 93.3143 14.0923C89.4176 14.0861 85.6613 15.549 82.7916 18.1903C81.3691 19.4926 80.2214 21.0673 79.4164 22.8215C78.5979 24.6194 78.1805 26.5746 78.1934 28.5507C78.1811 30.5768 78.5754 32.5846 79.3529 34.455C80.8424 38.0576 83.699 40.9198 87.2945 42.4123C89.243 43.21 91.3324 43.6044 93.437 43.5715C95.5416 43.5387 97.6178 43.0794 99.5405 42.2213C100.756 41.6658 101.895 40.9571 102.932 40.1126C103.154 39.9296 103.837 39.2612 104.377 38.7201C104.512 38.5857 104.594 38.4074 104.608 38.2176C104.623 38.0279 104.569 37.8391 104.456 37.6857L102.4 34.9404Z" fill="white"/>
<path d="M131.696 18.4291C128.859 15.6593 125.048 14.1188 121.086 14.1401C117.187 14.1342 113.429 15.597 110.556 18.2381C109.15 19.5296 108.014 21.0874 107.212 22.8215C106.393 24.6193 105.976 26.5746 105.989 28.5507C105.997 30.5812 106.413 32.5892 107.212 34.455C108.702 38.0576 111.558 40.9199 115.154 42.4123C118.899 43.9379 123.091 43.9379 126.836 42.4123C128.599 41.6905 130.215 40.6493 131.601 39.3408C132.982 38.0295 134.096 36.4621 134.881 34.7256C135.702 32.9087 136.119 30.9349 136.104 28.9407C136.119 26.93 135.716 24.9381 134.921 23.0921C134.153 21.3459 133.058 19.7631 131.696 18.4291ZM130.41 32.6249C129.889 33.8148 129.148 34.8948 128.226 35.8078C127.295 36.7058 126.2 37.4162 125.002 37.9006C123.743 38.4258 122.394 38.6963 121.031 38.6963C119.699 38.7012 118.379 38.4528 117.139 37.9642C115.94 37.4941 114.834 36.8122 113.875 35.951C112.929 35.0945 112.164 34.0552 111.628 32.8954C111.085 31.6882 110.814 30.376 110.834 29.0521C110.827 27.6856 111.097 26.3321 111.628 25.0734C112.124 23.88 112.853 22.7978 113.772 21.8905C114.7 20.9942 115.8 20.2958 117.004 19.8375C118.292 19.345 119.66 19.0968 121.039 19.1055C122.382 19.0959 123.714 19.336 124.97 19.8137C126.167 20.2729 127.267 20.9561 128.21 21.8268C129.145 22.6957 129.899 23.7426 130.426 24.9063C130.966 26.1283 131.237 27.4529 131.22 28.7895C131.222 30.1108 130.946 31.4176 130.41 32.6249Z" fill="white"/>
<path d="M163.741 32.4339C163.531 31.6997 163.233 30.9942 162.851 30.3331C162.507 29.7348 162.067 29.1972 161.549 28.7417C161.283 28.5128 161.002 28.3028 160.707 28.1131C161.309 27.5779 161.784 26.9145 162.097 26.1715C162.542 25.1117 162.764 23.9712 162.748 22.8215C162.767 21.673 162.551 20.5327 162.113 19.4714C161.708 18.5194 161.097 17.6689 160.326 16.9808C159.538 16.2945 158.619 15.7749 157.626 15.453C156.554 15.1027 155.433 14.928 154.306 14.9358H137.962V17.6651C137.962 17.7675 137.994 17.8672 138.054 17.9501C138.114 18.033 138.199 18.0948 138.296 18.1267C138.787 18.247 139.228 18.5179 139.559 18.9016C139.889 19.2853 140.092 19.7627 140.138 20.2672V42.4839C140.138 42.6105 140.188 42.732 140.278 42.8215C140.367 42.911 140.488 42.9613 140.615 42.9613H154.33C155.491 42.9584 156.648 42.8195 157.777 42.5476C158.908 42.2918 159.984 41.8335 160.953 41.1948C161.891 40.568 162.673 39.7352 163.24 38.7599C163.855 37.6404 164.159 36.3766 164.122 35.0996C164.121 34.1974 163.993 33.2999 163.741 32.4339ZM156.951 20.5536C157.286 20.831 157.546 21.1886 157.707 21.5933C157.868 21.998 157.925 22.4368 157.872 22.8692C157.91 23.3242 157.847 23.7821 157.688 24.21C157.529 24.6378 157.277 25.0251 156.951 25.3439C156.199 25.9178 155.265 26.2004 154.322 26.1396L145.022 26.1794V19.8932H154.322C155.244 19.8442 156.16 20.0743 156.951 20.5536ZM145.038 31.0891H154.338C154.959 31.0898 155.578 31.1484 156.188 31.2641C156.746 31.3619 157.283 31.5528 157.777 31.8291C158.212 32.0788 158.578 32.4346 158.841 32.8636C159.129 33.3829 159.267 33.9728 159.238 34.5664C159.252 35.0955 159.114 35.6175 158.841 36.0703C158.565 36.5037 158.203 36.8749 157.777 37.1605C157.327 37.4612 156.83 37.6845 156.307 37.8209C155.79 37.9643 155.256 38.0392 154.719 38.0437H145.022L145.038 31.0891Z" fill="white"/>
<path d="M111.763 55.5975C111.985 54.1689 112.128 52.7291 112.192 51.2846C112.187 50.7529 112.155 50.2217 112.096 49.6932L113.137 49.542C113.137 49.8444 113.137 50.3218 113.137 50.9743H113.184C113.371 50.5539 113.669 50.1924 114.045 49.9289C114.421 49.6653 114.862 49.5095 115.321 49.4783C116.178 49.4783 116.61 49.977 116.615 50.9743H116.671C116.856 50.5545 117.152 50.1933 117.527 49.9297C117.902 49.6661 118.342 49.51 118.799 49.4783C118.997 49.4552 119.198 49.4841 119.382 49.5622C119.566 49.6403 119.726 49.765 119.847 49.9239C120.064 50.3261 120.163 50.781 120.133 51.2369C120.133 51.6348 120.088 52.3217 119.998 53.2978C119.908 54.2739 119.882 55.0193 119.919 55.5338L118.847 55.5975C118.847 55.4277 118.908 54.8415 119.029 53.8389C119.151 52.8363 119.212 52.1599 119.212 51.8098C119.242 51.4154 119.177 51.0196 119.021 50.656C118.967 50.5588 118.888 50.4784 118.791 50.4236C118.694 50.3688 118.584 50.3419 118.473 50.3457C118.196 50.3721 117.93 50.4713 117.703 50.6334C117.475 50.7954 117.295 51.0145 117.179 51.2687C116.806 51.8373 116.572 52.4862 116.496 53.1626C116.411 54.0432 116.369 54.8389 116.369 55.5497L115.305 55.6134C115.305 55.4383 115.373 54.8389 115.511 53.8151C115.613 53.1559 115.682 52.4919 115.718 51.8257C115.752 51.4286 115.686 51.0292 115.527 50.664C115.473 50.5667 115.393 50.4863 115.297 50.4316C115.2 50.3768 115.09 50.3498 114.979 50.3536C114.704 50.3806 114.44 50.4793 114.214 50.6398C113.989 50.8003 113.809 51.0171 113.693 51.2687C113.312 51.8375 113.075 52.49 113.002 53.1705C112.901 54.1784 112.832 54.9742 112.795 55.5577L111.763 55.5975Z" fill="white"/>
<path d="M126.463 50.7834C126.47 51.112 126.357 51.4318 126.145 51.6826C125.934 51.9319 125.66 52.119 125.351 52.2237V52.2873C125.651 52.347 125.92 52.5105 126.112 52.7491C126.303 52.9876 126.405 53.2861 126.399 53.5923C126.419 53.9043 126.356 54.216 126.217 54.4956C126.077 54.7752 125.866 55.0127 125.605 55.1838C125.007 55.5605 124.31 55.749 123.604 55.7249C122.169 55.7249 121.449 55.0989 121.444 53.847C121.444 50.9081 122.502 49.4386 124.62 49.4386C125.849 49.4227 126.463 49.871 126.463 50.7834ZM125.399 53.664C125.399 53.0009 124.829 52.6693 123.691 52.6693C123.267 52.6735 122.845 52.7161 122.428 52.7966C122.373 53.058 122.352 53.3255 122.365 53.5923C122.365 54.526 122.863 54.9928 123.858 54.9928C124.257 55.0102 124.65 54.8955 124.978 54.6666C125.124 54.5466 125.239 54.3924 125.312 54.2177C125.386 54.0429 125.415 53.8528 125.399 53.664ZM125.518 50.871C125.518 50.3776 125.155 50.1309 124.43 50.1309C123.371 50.1309 122.73 50.7728 122.508 52.0566C123.337 52.1027 124.167 51.9892 124.954 51.7224C125.12 51.651 125.263 51.5324 125.363 51.3811C125.463 51.2298 125.517 51.0525 125.518 50.871Z" fill="white"/>
<path d="M132.562 49.6136C132.34 50.7211 131.905 51.7749 131.283 52.717C130.738 53.6519 130.245 54.6162 129.806 55.6055C129.594 56.3448 129.247 57.0382 128.782 57.6505C128.54 57.8689 128.255 58.0352 127.947 58.1392C127.638 58.2432 127.311 58.2827 126.987 58.2552V57.3959C127.25 57.3953 127.511 57.3422 127.753 57.2398C127.996 57.1373 128.216 56.9875 128.4 56.7991C128.594 56.6288 128.75 56.4198 128.858 56.1854C128.966 55.951 129.024 55.6965 129.028 55.4384C128.919 54.3828 128.652 53.3498 128.234 52.3748C127.861 51.5168 127.594 50.6162 127.439 49.6932L128.647 49.6296C128.712 50.4965 128.874 51.3534 129.131 52.1839C129.366 52.9357 129.528 53.7085 129.616 54.4915H129.679C129.906 53.7369 130.202 53.0045 130.561 52.3032C130.997 51.4911 131.285 50.6071 131.41 49.6932L132.562 49.6136Z" fill="white"/>
<path d="M88.2952 49.7966C88.2952 49.9346 88.0146 50.2873 87.4534 50.855C87.0431 51.2835 86.6054 51.6849 86.1431 52.0565V52.1202C86.6045 52.7005 86.9815 53.3435 87.2628 54.0299C87.5004 54.4984 87.6664 55 87.7552 55.5179L86.6751 55.5816C86.6196 55.1831 86.5156 54.7929 86.3654 54.4198C86.1575 53.8175 85.8718 53.245 85.5157 52.717C85.1505 53.0655 84.8304 53.4585 84.5627 53.8867C84.2445 54.3743 84.0584 54.9364 84.0226 55.5179L83.0061 55.5816C83.0696 55.1996 83.1941 54.266 83.3794 52.7806C83.4599 52.0486 83.5023 51.3129 83.5064 50.5764C83.5064 50.29 83.5064 50.0566 83.5064 49.8762L84.6024 49.7091C84.6024 49.9266 84.5547 50.4226 84.4594 51.1971C84.3641 51.9716 84.2741 52.7673 84.1894 53.5843H84.1815C84.6156 52.8358 85.15 52.1504 85.7698 51.5472C86.3182 51.0539 86.7705 50.4631 87.104 49.8046L88.2952 49.7966Z" fill="white"/>
<path d="M93.7115 49.558C93.4159 51.0163 93.2353 52.4956 93.1714 53.9822C93.1782 54.4748 93.2153 54.9664 93.2826 55.4543L92.274 55.6055C92.274 55.2501 92.274 54.8045 92.274 54.2687H92.2184C92.051 54.6664 91.7737 55.0079 91.4192 55.2532C91.0647 55.4984 90.6477 55.6372 90.2172 55.6533C89.9983 55.6629 89.7809 55.6142 89.587 55.5121C89.3931 55.4101 89.2296 55.2583 89.1133 55.0724C88.8415 54.6195 88.7089 54.0964 88.7321 53.5685C88.7173 53.0831 88.7989 52.5997 88.972 52.1462C89.1452 51.6927 89.4064 51.2782 89.7407 50.9266C90.1375 50.5405 90.6097 50.2408 91.1277 50.0463C91.6457 49.8519 92.1982 49.7669 92.7505 49.7967L93.0126 49.6137L93.7115 49.558ZM92.6235 50.5129C92.219 50.4813 91.8125 50.536 91.4306 50.6731C91.0487 50.8103 90.7001 51.0268 90.4078 51.3086C89.9212 51.903 89.6721 52.6573 89.7089 53.4252C89.7089 54.3377 90.0107 54.7939 90.6142 54.7939C91.0378 54.7939 91.4269 54.4888 91.7817 53.8788C92.0966 53.3701 92.3197 52.8099 92.4408 52.2237C92.5437 51.6554 92.6127 51.0814 92.6473 50.5049L92.6235 50.5129Z" fill="white"/>
<path d="M99.4771 49.7012C99.4188 50.0831 99.2891 51.1096 99.0879 52.7806C98.982 53.8098 98.9132 54.7222 98.8815 55.5179L97.8729 55.5816C97.8729 55.5126 97.9179 55.2103 98.0079 54.6745C98.1244 53.9636 98.2276 53.1865 98.3176 52.343H98.2699C98.073 52.7175 97.7801 53.0327 97.4215 53.2564C97.0628 53.4802 96.6513 53.6043 96.2289 53.6162C95.2971 53.6162 94.8339 53.0857 94.8392 52.0247C94.8392 51.6321 94.8709 50.9133 94.9345 49.8683L95.9669 49.7489C95.9669 49.8444 95.9298 50.1388 95.8557 50.6322C95.793 51.0032 95.7559 51.378 95.7445 51.7542C95.7253 52.0298 95.783 52.3053 95.9113 52.5499C95.9768 52.6328 96.062 52.6981 96.1591 52.7398C96.2561 52.7815 96.362 52.7982 96.4672 52.7886C96.7347 52.7978 97.0001 52.7392 97.2389 52.6182C97.4777 52.4972 97.6821 52.3177 97.8332 52.0963C98.1611 51.6824 98.3625 51.1821 98.4129 50.656C98.4129 50.3855 98.4129 50.1203 98.4129 49.8603L99.4771 49.7012Z" fill="white"/>
<path d="M105.552 50.9266C105.557 51.1809 105.49 51.4312 105.357 51.6483C105.225 51.8653 105.034 52.0401 104.806 52.152C103.784 52.5893 102.676 52.7879 101.566 52.7329C101.516 53.2899 101.647 53.8481 101.939 54.3244C102.097 54.4992 102.293 54.6342 102.512 54.7186C102.732 54.8029 102.968 54.8342 103.202 54.8098C103.875 54.7796 104.528 54.5679 105.092 54.1971L104.941 55.0803C104.355 55.4815 103.657 55.685 102.948 55.6612C102.612 55.6883 102.275 55.6362 101.963 55.509C101.652 55.3819 101.374 55.1833 101.153 54.9291C100.752 54.3934 100.548 53.736 100.573 53.0671C100.546 52.591 100.618 52.1144 100.785 51.6677C100.951 51.2211 101.209 50.8142 101.542 50.4731C101.832 50.1776 102.178 49.9431 102.56 49.7832C102.942 49.6234 103.352 49.5414 103.766 49.5421C104.221 49.527 104.669 49.658 105.044 49.9161C105.206 50.0292 105.337 50.1808 105.425 50.3572C105.514 50.5335 105.558 50.7292 105.552 50.9266ZM104.599 50.9266C104.601 50.8262 104.574 50.7274 104.522 50.6415C104.47 50.5556 104.395 50.4862 104.306 50.4412C104.074 50.3171 103.814 50.2566 103.551 50.2662C103.112 50.2688 102.686 50.4202 102.344 50.6959C101.947 51.03 101.689 51.5014 101.621 52.0168C102.478 52.0567 103.334 51.9241 104.139 51.6269C104.265 51.5691 104.374 51.4793 104.455 51.3662C104.536 51.2531 104.586 51.1207 104.599 50.9823V50.9266Z" fill="white"/>
<path d="M110.802 49.7808L110.556 50.7197C110.171 50.5965 109.769 50.5347 109.365 50.5367C109.086 50.5291 108.811 50.5888 108.56 50.7107C108.31 50.8326 108.093 51.0131 107.927 51.237C107.564 51.708 107.374 52.2894 107.387 52.8841C107.366 53.3793 107.499 53.8688 107.768 54.2846C107.894 54.4623 108.063 54.6051 108.259 54.6997C108.454 54.7943 108.671 54.8377 108.888 54.8257C109.48 54.8042 110.053 54.6137 110.54 54.2767L110.389 55.1599C109.903 55.5331 109.3 55.7194 108.689 55.6851C108.354 55.7054 108.019 55.6435 107.714 55.5049C107.408 55.3662 107.14 55.155 106.934 54.8894C106.554 54.3517 106.364 53.7018 106.394 53.0433C106.366 52.1614 106.686 51.3038 107.284 50.6561C107.596 50.3292 107.974 50.0729 108.394 49.9041C108.813 49.7353 109.263 49.658 109.714 49.6773C110.079 49.6718 110.444 49.7065 110.802 49.7808Z" fill="white"/>
<path d="M54.9325 50.9266C54.9391 51.2465 54.829 51.5577 54.6227 51.8019C54.4116 52.0472 54.1367 52.229 53.8286 52.3271V52.3908C54.1206 52.4488 54.3828 52.6085 54.5688 52.8414C54.7548 53.0744 54.8527 53.3657 54.8451 53.6639C54.8572 53.9648 54.7902 54.2635 54.6508 54.5302C54.5114 54.797 54.3046 55.0223 54.0509 55.1838C53.4693 55.5496 52.7916 55.7325 52.1052 55.709C50.7234 55.7037 50.0325 55.083 50.0325 53.847C50.0325 50.9876 51.0728 49.558 53.1535 49.558C54.3395 49.558 54.9325 50.0142 54.9325 50.9266ZM53.9001 53.7276C53.9001 53.0804 53.3468 52.7568 52.2402 52.7568C51.8269 52.762 51.4149 52.8046 51.0093 52.8841C50.9532 53.1454 50.9318 53.413 50.9458 53.6799C50.9458 54.5923 51.4302 55.0485 52.3991 55.0485C52.7859 55.067 53.168 54.958 53.4871 54.7382C53.6393 54.6162 53.7573 54.4568 53.8297 54.2755C53.902 54.0942 53.9263 53.8972 53.9001 53.7037V53.7276ZM54.0033 50.9823C54.0033 50.4996 53.6512 50.2609 52.9471 50.2662C51.8882 50.2662 51.2634 50.8922 51.0728 52.1441C51.8805 52.1883 52.6891 52.0776 53.4553 51.8179C53.6183 51.7477 53.7571 51.6311 53.8545 51.4826C53.952 51.334 54.0037 51.1601 54.0033 50.9823Z" fill="white"/>
<path d="M60.9521 50.9266C60.9569 51.1808 60.8892 51.4312 60.757 51.6482C60.6248 51.8653 60.4335 52.04 60.2056 52.152C59.1835 52.5892 58.0755 52.7879 56.9654 52.7329C56.9154 53.2898 57.0463 53.848 57.3387 54.3243C57.4954 54.498 57.6905 54.6323 57.9084 54.7166C58.1264 54.8009 58.361 54.8328 58.5935 54.8097C59.267 54.7795 59.92 54.5679 60.4836 54.197L60.3565 55.0962C59.7707 55.4973 59.0724 55.7008 58.3632 55.6771C58.0192 55.7045 57.6738 55.6487 57.3559 55.5144C57.038 55.3801 56.757 55.1711 56.5366 54.9052C56.1361 54.3695 55.9314 53.7121 55.9568 53.0432C55.9295 52.5671 56.0015 52.0905 56.1683 51.6438C56.3351 51.1972 56.5931 50.7903 56.9257 50.4491C57.216 50.1537 57.5622 49.9191 57.944 49.7593C58.3258 49.5994 58.7356 49.5175 59.1494 49.5181C59.6045 49.5031 60.0525 49.6341 60.428 49.8921C60.5959 50.0057 60.7322 50.1602 60.8239 50.3413C60.9157 50.5223 60.9598 50.7237 60.9521 50.9266ZM59.9991 50.9266C60.0008 50.8261 59.9741 50.7273 59.9221 50.6414C59.8701 50.5556 59.7949 50.4861 59.7053 50.4412C59.4737 50.317 59.2134 50.2566 58.9509 50.2661C58.5116 50.2687 58.0861 50.4202 57.7437 50.6958C57.3463 51.03 57.0885 51.5013 57.021 52.0167C57.8793 52.0905 58.7436 51.9904 59.5624 51.7223C59.6982 51.6538 59.8117 51.5477 59.8891 51.4165C59.9665 51.2853 60.0047 51.1346 59.9991 50.9823V50.9266Z" fill="white"/>
<path d="M67.3294 51.9531C67.3763 52.9089 67.0961 53.8522 66.5352 54.6268C66.2743 54.9755 65.9327 55.2556 65.5398 55.4427C65.1469 55.6298 64.7145 55.7185 64.2798 55.701C63.7838 55.7412 63.29 55.5999 62.89 55.3031H62.8424C62.7259 56.4119 62.6385 57.3826 62.5803 58.2155L61.5161 58.2792C62.0191 54.5976 62.2706 52.2475 62.2706 51.229C62.2654 50.7766 62.2336 50.3249 62.1753 49.8763L63.1839 49.7251C63.1839 50.0593 63.1839 50.5235 63.1839 51.1176H63.2315C63.4123 50.6898 63.7137 50.3242 64.0988 50.0656C64.4839 49.8069 64.936 49.6665 65.3996 49.6614C65.6613 49.6542 65.9211 49.7071 66.1593 49.8161C66.3974 49.925 66.6075 50.0872 66.7735 50.29C67.1501 50.7606 67.3472 51.3502 67.3294 51.9531ZM66.3049 52.3112C66.3049 51.0805 65.8734 50.4651 65.0104 50.4651C64.7517 50.4904 64.5023 50.5755 64.2819 50.7135C64.0614 50.8516 63.8759 51.0389 63.7398 51.2608C63.322 51.8176 63.0738 52.4836 63.025 53.1785L62.9059 54.5392C63.2428 54.7571 63.6328 54.8782 64.0336 54.8894C64.3551 54.9123 64.6774 54.8586 64.9741 54.7328C65.2709 54.6069 65.5337 54.4124 65.7411 54.1652C66.133 53.629 66.3318 52.9753 66.3049 52.3112Z" fill="white"/>
<path d="M73.3491 50.9266C73.3539 51.1808 73.2862 51.4312 73.154 51.6482C73.0217 51.8653 72.8305 52.04 72.6026 52.152C71.5804 52.5892 70.4724 52.7879 69.3624 52.7329C69.3124 53.2898 69.4433 53.848 69.7357 54.3243C69.8932 54.4991 70.0896 54.6342 70.309 54.7185C70.5284 54.8029 70.7646 54.8341 70.9984 54.8097C71.6719 54.7795 72.3249 54.5679 72.8885 54.197L72.7376 55.0803C72.1517 55.4814 71.4535 55.6849 70.7443 55.6612C70.4042 55.6879 70.0628 55.6333 69.748 55.5019C69.4331 55.3705 69.154 55.166 68.9336 54.9052C68.533 54.3695 68.3284 53.7121 68.3538 53.0432C68.3264 52.5671 68.3984 52.0905 68.5653 51.6438C68.7321 51.1972 68.9901 50.7903 69.3227 50.4491C69.613 50.1537 69.9592 49.9191 70.341 49.7593C70.7228 49.5994 71.1326 49.5175 71.5464 49.5181C72.0014 49.5031 72.4494 49.6341 72.825 49.8921C72.9929 50.0057 73.1292 50.1602 73.2209 50.3413C73.3126 50.5223 73.3567 50.7237 73.3491 50.9266ZM72.3961 50.9266C72.3968 50.8263 72.3697 50.7279 72.3178 50.6422C72.2659 50.5565 72.1913 50.4869 72.1023 50.4412C71.8707 50.317 71.6103 50.2566 71.3478 50.2661C70.9086 50.2687 70.4831 50.4202 70.1407 50.6958C69.7433 51.03 69.4854 51.5013 69.418 52.0167C70.2657 52.0862 71.1188 51.9861 71.9276 51.7223C72.0694 51.6585 72.1894 51.5543 72.2727 51.4227C72.356 51.2912 72.3989 51.138 72.3961 50.9823V50.9266Z" fill="white"/>
<path d="M79.3132 49.7091C79.3132 50.0433 79.2365 50.9266 79.0829 52.3589C78.9453 53.6692 78.8632 54.7302 78.8367 55.5418L77.8281 55.5736C77.8584 55.1946 77.9087 54.8174 77.979 54.4437C78.0796 53.8283 78.1537 53.2262 78.2014 52.6374H78.1458C78.1458 52.8363 77.987 52.9398 77.7408 52.9398H76.8513H75.9936C75.8804 52.931 75.7677 52.9631 75.676 53.0302C75.5843 53.0973 75.5195 53.195 75.4933 53.3058C75.3518 54.0541 75.2695 54.8124 75.2471 55.5736L74.2385 55.6373C74.3021 55.2553 74.4238 54.3217 74.6038 52.8363C74.6844 52.1043 74.7268 51.3686 74.7309 50.6322C74.7309 50.3457 74.7309 50.1017 74.7309 49.9001L75.7395 49.7648C75.7395 49.9558 75.6707 50.8364 75.533 52.4066H75.5886C75.6283 52.2077 75.7792 52.1043 76.0333 52.1043H76.899H77.7805C78.0876 52.1043 78.2729 51.9133 78.3364 51.5313C78.3364 51.4756 78.3364 51.1573 78.3364 50.5765C78.3394 50.3292 78.3261 50.082 78.2967 49.8364L79.3132 49.7091Z" fill="white"/>
<defs>
<linearGradient id="paint0_linear" x1="-108.697" y1="106.779" x2="320.043" y2="-7.87784" gradientUnits="userSpaceOnUse">
<stop offset="0.14" stop-color="#A36D41"/>
<stop offset="0.15" stop-color="#A57043"/>
<stop offset="0.16" stop-color="#AD7A49"/>
<stop offset="0.17" stop-color="#CFA462"/>
<stop offset="0.18" stop-color="#DCB983"/>
<stop offset="0.19" stop-color="#F4DFBF"/>
<stop offset="0.21" stop-color="#F0D8B4"/>
<stop offset="0.22" stop-color="#E1C190"/>
<stop offset="0.23" stop-color="#CFA462"/>
<stop offset="0.24" stop-color="#CDA262"/>
<stop offset="0.46" stop-color="#A1845A"/>
<stop offset="0.47" stop-color="#C4A77B"/>
<stop offset="0.48" stop-color="#D5B88B"/>
<stop offset="0.49" stop-color="#E0C397"/>
<stop offset="0.51" stop-color="#E7CA9D"/>
<stop offset="0.54" stop-color="#E9CC9F"/>
<stop offset="0.62" stop-color="#DEBB86"/>
<stop offset="0.75" stop-color="#CFA462"/>
<stop offset="0.77" stop-color="#E7C99B"/>
<stop offset="0.83" stop-color="#E5D5BD"/>
<stop offset="0.85" stop-color="#705121"/>
</linearGradient>
<radialGradient id="paint1_radial" cx="0" cy="0" r="1" gradientUnits="userSpaceOnUse" gradientTransform="translate(91.9802 36.1659) scale(69.6006 71.8298)">
<stop stop-color="#168FCF"/>
<stop offset="0.37" stop-color="#176CB4"/>
<stop offset="0.78" stop-color="#194C9B"/>
<stop offset="1" stop-color="#194092"/>
</radialGradient>
</defs>
</svg>
