<svg width="137" height="97" viewBox="0 0 137 97" fill="none" xmlns="http://www.w3.org/2000/svg">
<path fill-rule="evenodd" clip-rule="evenodd" d="M7.04817 3.28814L2.29591 11.1797C4.26236 16.1119 5.7372 13.3169 2.9514 22.8525C2.78753 23.5102 2.13204 25.6475 3.27914 26.4695C5.7372 28.4424 3.77075 28.278 4.26236 31.5661C4.42624 33.8678 0.493334 33.0458 0.984947 42.2525C0.821076 44.3898 0.00172162 42.2525 2.13204 44.8831C4.42624 48.0068 3.27914 47.678 2.45978 54.2542C2.29591 55.0763 2.29591 56.2271 2.13204 57.5424C2.78753 57.8712 3.60688 58.2 4.26236 58.5288C5.08172 59.022 5.40946 59.8441 4.91785 60.6661L3.93462 62.3102L4.91785 64.6119L2.45978 69.0508C5.40946 74.8051 5.24559 73.4898 2.45978 83.3542C7.86752 90.2593 5.08172 90.5881 6.06494 92.3966C8.68688 94.5339 8.52301 94.0407 11.8004 94.2051L16.8804 96.3424C21.3049 95.0271 25.5656 96.178 29.9901 96.6712C34.4146 97.3288 55.7178 97 60.1423 96.3424C64.8946 95.8492 69.3191 97.3288 74.563 96.8356C88.492 95.1915 89.9668 95.6848 102.913 95.5203C107.501 95.5203 114.056 96.0136 118.316 95.5203C132.573 93.3831 131.754 92.8898 133.72 88.2864L136.342 83.6831C136.178 80.7237 134.867 78.5864 134.048 76.1203L132.901 66.7492L134.54 64.1187C129.296 57.0492 134.212 60.3373 134.376 51.4593C134.54 45.7051 136.506 40.9373 134.704 35.1831C131.098 23.6746 139.128 31.0729 135.359 21.3729C133.393 16.6051 132.737 11.8373 134.376 6.74068C128.968 0.822034 129.46 3.45254 126.182 2.13729C123.888 1.31525 125.363 0.986441 123.233 0.328814C122.577 0 110.451 1.97288 107.665 1.97288C96.0301 1.80847 83.9036 1.31525 72.1049 1.31525C67.0249 1.15085 59.1591 2.79492 55.3901 2.4661C50.6378 1.97288 51.7849 0.49322 49.163 0C41.2972 0.986441 9.6701 -0.822034 7.04817 3.28814Z" fill="#299926"/>
<path fill-rule="evenodd" clip-rule="evenodd" d="M7.04817 3.28814L2.29591 11.1797C4.26236 16.1119 5.7372 13.3169 2.9514 22.8525C2.78753 23.5102 2.13204 25.6475 3.27914 26.4695C5.7372 28.4424 3.77075 28.278 4.26236 31.5661C4.42624 33.8678 0.493334 33.0458 0.984947 42.2525C0.821076 44.3898 0.00172162 42.2525 2.13204 44.8831C4.42624 48.0068 3.27914 47.678 2.45978 54.2542C2.29591 55.0763 2.29591 56.2271 2.13204 57.5424C2.78753 57.8712 3.60688 58.2 4.26236 58.5288C5.08172 59.022 5.40946 59.8441 4.91785 60.6661L3.93462 62.3102L4.91785 64.6119L2.45978 69.0508C5.40946 74.8051 5.24559 73.4898 2.45978 83.3542C7.86752 90.2593 5.08172 90.5881 6.06494 92.3966C8.68688 94.5339 8.52301 94.0407 11.8004 94.2051L16.8804 96.3424C21.3049 95.0271 25.5656 96.178 29.9901 96.6712C34.4146 97.3288 55.7178 97 60.1423 96.3424C64.8946 95.8492 69.3191 97.3288 74.563 96.8356C88.492 95.1915 89.9668 95.6848 102.913 95.5203C107.501 95.5203 114.056 96.0136 118.316 95.5203C132.573 93.3831 131.754 92.8898 133.72 88.2864L136.342 83.6831C136.178 80.7237 134.867 78.5864 134.048 76.1203L132.901 66.7492L134.54 64.1187C129.296 57.0492 134.212 60.3373 134.376 51.4593C134.54 45.7051 136.506 40.9373 134.704 35.1831C131.098 23.6746 139.128 31.0729 135.359 21.3729C133.393 16.6051 132.737 11.8373 134.376 6.74068C128.968 0.822034 129.46 3.45254 126.182 2.13729C123.888 1.31525 125.363 0.986441 123.233 0.328814C122.577 0 110.451 1.97288 107.665 1.97288C96.0301 1.80847 83.9036 1.31525 72.1049 1.31525C67.0249 1.15085 59.1591 2.79492 55.3901 2.4661C50.6378 1.97288 51.7849 0.49322 49.163 0C41.2972 0.986441 9.6701 -0.822034 7.04817 3.28814Z" fill="#515151"/>
<path fill-rule="evenodd" clip-rule="evenodd" d="M24.5829 84.9982C26.5494 84.9982 28.1881 84.3406 28.0242 82.0389L27.8603 68.3931C27.8603 67.0779 27.8603 65.927 27.6965 64.6118C27.6965 63.1321 27.6965 61.8168 27.6965 60.5016C27.6965 59.1863 27.6965 58.0355 27.6965 56.7202L29.3352 62.9677C29.8268 65.105 30.3184 67.0779 30.9739 69.2151C31.4655 71.0236 32.9403 76.9423 33.7597 78.4219C34.579 80.066 35.5623 80.066 37.0371 80.066C38.0203 80.066 39.1674 79.4084 39.659 78.9151C40.3145 78.0931 40.4784 77.2711 40.8061 76.1202L43.4281 63.6253C43.7558 62.4745 43.9197 61.488 44.0836 60.3372C44.2474 59.6796 44.739 57.5423 44.739 57.049H44.9029C44.9029 62.1457 44.739 66.9135 44.9029 72.0101C44.9029 74.4762 44.9029 77.1067 44.9029 79.5728C44.9029 80.066 44.9029 80.5592 44.9029 81.2168C44.9029 83.1897 44.739 84.9982 47.1971 84.9982C49.9829 84.9982 50.6384 83.5185 50.6384 80.888V72.9965C50.6384 72.0101 50.4745 71.3524 50.4745 70.366C50.4745 68.7219 50.4745 66.9135 50.4745 65.105C50.3106 60.0084 49.9829 54.4185 49.9829 49.3219C49.9829 47.5135 49.9829 45.8694 49.819 44.0609C49.819 43.4033 49.4913 42.5812 49.1636 42.088C48.1803 40.6084 45.8861 41.266 45.2307 41.5948C45.0668 41.7592 45.0668 41.7592 44.9029 41.9236C44.5752 42.2524 44.0836 42.4168 43.7558 42.7457C42.9365 43.7321 42.6087 45.2118 42.281 46.3626C41.4616 49.1575 39.9868 56.227 39.3313 59.0219C39.1674 60.3372 38.8397 61.8168 38.5119 63.1321L36.7094 71.6812C36.3816 70.366 35.89 69.0507 35.5623 67.7355C34.579 63.7897 33.2681 59.5151 32.121 55.5694C31.4655 52.7745 30.6461 50.144 29.9907 47.349C29.6629 46.0338 29.1713 44.7185 28.8436 43.2389C28.6797 42.2524 28.6797 42.2524 28.1881 42.088C25.73 40.6084 22.7803 41.266 21.7971 43.8965L22.2887 80.888C22.2887 82.3677 22.6165 84.9982 24.5829 84.9982Z" fill="#FEFEFE"/>
<path fill-rule="evenodd" clip-rule="evenodd" d="M107.338 44.883H107.665C109.304 44.883 110.287 48.5 110.451 49.9796L110.779 54.7474C110.943 55.5695 110.943 56.5559 110.943 57.378C110.943 59.1864 110.943 60.6661 110.943 62.4746V64.9407C110.943 66.7491 110.779 69.3796 110.615 71.0237C110.615 72.0102 109.96 81.8746 107.01 79.4085C106.355 78.9152 105.863 77.7644 105.535 76.9424C104.88 74.8051 104.716 72.339 104.388 70.2017L104.224 66.4203C104.224 65.9271 104.224 65.5983 104.224 65.1051C104.224 64.6119 104.224 64.283 104.224 63.7898C104.224 63.2966 104.06 63.1322 104.06 62.4746C104.06 61.9813 104.224 61.8169 104.224 61.3237C104.224 58.6932 104.06 57.8712 104.388 55.0763C104.388 54.583 104.388 54.2542 104.388 53.761C104.388 53.4322 104.552 52.939 104.552 52.6102C104.552 50.9661 105.371 45.0474 107.338 44.883ZM98.4887 62.4746H96.0306C96.0306 58.3644 96.0306 54.4186 96.0306 50.1441C96.0306 48.0068 96.0306 46.1983 96.0306 44.061C96.0306 42.7457 96.1945 42.4169 95.3752 41.7593C94.2281 40.6085 91.6061 40.444 90.7868 41.7593C90.459 42.4169 90.2952 43.8966 90.2952 44.7186L90.6229 82.2034C90.6229 83.3542 91.6061 84.3407 92.9171 84.3407C94.0642 84.3407 94.5558 84.5051 95.2113 83.5186C96.0306 82.2034 96.1945 79.7373 96.1945 78.2576L96.0306 67.5712H97.5055C99.3081 67.2424 98.3248 66.9135 98.9803 72.1746C99.7997 77.9288 100.619 84.6695 107.993 84.6695C112.582 84.6695 114.712 80.0661 115.531 76.1203C116.842 69.7085 116.678 64.283 116.678 57.5424C116.678 56.8847 116.514 56.5559 116.514 55.8983C116.514 54.583 116.514 53.761 116.514 52.6102C116.514 49.9796 116.187 48.5 115.531 46.5271C114.548 43.8966 112.09 39.7864 108.321 39.9508C101.275 39.9508 99.3081 46.8559 98.6526 52.4457C98.4887 52.939 98.4887 53.9254 98.4887 54.4186C98.4887 55.7339 98.4887 57.0491 98.4887 58.3644C98.4887 59.8441 98.3248 60.9949 98.4887 62.4746Z" fill="#FEFEFE"/>
<path fill-rule="evenodd" clip-rule="evenodd" d="M81.4456 62.639C80.7901 62.639 80.2985 62.639 79.4792 62.639H75.5463C75.5463 58.5288 75.5463 54.5831 75.5463 50.4729C75.5463 48.1712 75.5463 46.3627 75.5463 44.2254C75.5463 42.7458 75.7101 42.5814 74.8908 41.7593C73.7437 40.7729 70.9579 40.6085 70.3024 41.9238C69.8108 42.7458 69.8108 43.8966 69.8108 45.0475L70.1385 82.2034C70.1385 84.5051 72.105 84.5051 73.416 84.5051C75.3824 84.5051 75.7101 80.0661 75.7101 78.7509L75.5463 67.7356L81.4456 67.5712C81.4456 69.0509 81.2818 70.2017 81.4456 71.517V82.6966C81.4456 84.8339 84.5592 84.6695 86.1979 83.6831C87.345 83.0255 87.0172 83.0255 87.0172 81.3814C87.0172 75.2983 87.1811 68.7221 87.1811 62.639V53.2678C87.1811 52.117 87.1811 51.2949 87.1811 50.1441C87.1811 48.9932 87.0172 48.1712 87.0172 47.0204V42.417C87.0172 41.5949 85.2147 40.4441 84.0676 40.4441C83.2482 40.4441 82.4289 40.9373 81.9372 41.4305C81.4456 42.2526 81.4456 42.7458 81.4456 44.061C81.6095 46.1983 81.4456 48.1712 81.4456 50.3085C81.4456 54.4187 81.4456 58.5288 81.4456 62.639Z" fill="#FEFEFE"/>
<path fill-rule="evenodd" clip-rule="evenodd" d="M57.0292 84.9984H61.7815C62.6008 84.9984 63.4202 84.6696 64.2395 84.6696C65.7144 84.6696 67.8447 84.3408 67.6808 82.5323V81.8747C67.6808 78.9154 62.2731 80.2306 59.6512 80.2306C59.6512 75.2984 59.815 70.5306 59.6512 65.5984C61.4537 65.2696 64.7311 66.0916 66.206 64.9408C67.0253 64.1187 67.0253 63.2967 67.0253 62.3103C66.8615 60.5018 65.7144 60.173 64.0757 60.3374C62.437 60.3374 60.7982 60.3374 59.1595 60.3374C59.3234 58.2001 59.1595 54.5831 59.3234 53.4323C59.4873 52.2815 59.1595 48.0069 59.1595 46.5272C59.4873 46.5272 59.815 46.5272 60.3066 46.5272C60.7982 46.5272 61.2899 46.5272 61.7815 46.5272C62.2731 46.3628 62.437 46.3628 63.0924 46.3628C63.5841 46.3628 64.0757 46.3628 64.5673 46.3628C65.3866 46.3628 66.3699 46.1984 66.8615 45.8696C68.0086 45.212 68.0086 41.7594 66.206 41.2662C65.2228 40.9374 63.7479 41.1018 62.437 41.1018C57.0292 41.1018 55.0628 40.2798 54.4073 44.7187C54.2434 45.3764 54.2434 45.8696 54.2434 46.5272C53.9157 47.8425 54.0795 52.6103 54.0795 54.4187C54.0795 55.0764 54.0795 55.5696 54.0795 56.2272C54.0795 61.6526 54.0795 66.9137 54.0795 72.1747C54.0795 73.4899 54.0795 74.6408 54.0795 75.956C54.0795 77.6001 53.9157 82.6967 54.4073 83.6831C54.8989 84.6696 55.8821 84.9984 57.0292 84.9984Z" fill="#FEFEFE"/>
<path fill-rule="evenodd" clip-rule="evenodd" d="M89.3118 20.5508V20.7152V20.5508ZM89.3118 20.5508C89.3118 19.2355 89.6396 17.9203 89.8034 16.7694C89.9673 16.2762 90.1312 15.6186 90.295 15.1254C90.7867 13.6457 91.4421 13.4813 91.4421 14.7965C91.4421 15.2898 91.2783 15.4542 91.2783 15.783C91.1144 16.4406 90.9505 16.9338 90.7867 17.5915C90.6228 18.0847 89.8034 20.222 89.3118 20.5508ZM84.5596 23.6745C84.5596 26.4694 84.7234 28.4423 86.3621 30.744C88.6563 34.0321 92.917 34.5254 95.8667 30.5796C96.8499 29.0999 97.6692 26.7982 97.6692 24.4966C97.6692 20.5508 93.9002 19.5643 92.0976 22.5237C91.7699 23.0169 90.7867 24.9898 90.7867 25.6474C90.7867 25.9762 92.0976 27.4559 93.0808 26.305C93.5725 25.483 93.0808 23.1813 94.2279 23.1813C94.7196 23.1813 94.5557 24.1677 94.5557 24.661C94.5557 26.9627 91.1144 34.8542 89.4757 25.8118C89.148 24.0033 89.6396 24.4966 91.2783 21.7016C92.4254 19.8932 94.7196 15.6186 94.0641 12.4949C93.7363 10.6864 92.0976 10.0287 90.1312 10.6864C85.8705 12.0016 84.5596 19.3999 84.5596 23.6745Z" fill="#FEFEFE"/>
<path fill-rule="evenodd" clip-rule="evenodd" d="M38.0204 39.4577C37.6926 39.4577 37.5287 38.9645 37.5287 38.6356C37.3649 36.3339 38.3481 34.3611 39.3313 32.717C39.4952 32.3882 40.1507 31.4017 40.4784 31.0729C40.4784 32.5526 39.6591 39.4577 38.0204 39.4577ZM33.9236 24.9899C33.9236 26.7984 34.7429 28.278 36.2178 28.6068C37.6926 28.9356 38.8397 28.6068 39.8229 27.7848C40.1507 27.6204 40.3145 27.2916 40.6423 27.1272C40.6423 27.9492 40.3145 27.7848 39.6591 28.4424C38.1842 29.9221 37.0371 31.0729 35.89 33.0458C35.7262 33.539 35.5623 33.7034 35.2346 34.3611C34.5791 36.0051 33.9236 38.6356 35.3984 40.2797C36.8733 41.9238 40.3145 41.4306 42.1171 38.8001C42.9365 37.3204 43.592 35.6763 44.0836 33.8678C44.7391 31.0729 45.0668 26.9628 44.5752 24.0034C44.2474 22.195 43.7558 21.7017 42.281 21.7017C41.6255 21.7017 40.6423 22.3594 40.1507 22.6882C40.97 24.6611 38.0204 27.6204 38.0204 25.3187C38.0204 23.6746 38.512 22.6882 39.1675 21.5373C39.8229 20.3865 41.1339 19.5645 41.4616 20.8797C45.7223 19.8933 43.592 17.756 42.1171 17.756H40.97C39.1675 17.756 37.201 19.0712 36.2178 20.0577C35.0707 21.3729 33.9236 23.017 33.9236 24.9899Z" fill="#FEFEFE"/>
<path fill-rule="evenodd" clip-rule="evenodd" d="M16.8805 12.0017C16.8805 13.6458 18.0276 14.3034 19.6663 14.3034C21.7966 14.3034 25.8934 12.3305 27.8598 14.4678C29.0069 15.783 27.3682 19.2356 26.0573 19.0712C20.9773 18.4136 19.5024 20.5508 20.9773 21.3729C22.616 22.5237 25.7295 21.2085 26.0573 21.3729C26.2211 21.3729 26.7127 21.7017 26.8766 21.8661C29.9902 24.1678 29.1708 31.8949 22.4521 31.8949C19.994 31.8949 18.1914 30.4153 16.8805 28.6068C16.7166 28.278 16.3889 28.1136 16.225 27.7847C15.5695 27.9491 14.2585 28.9356 14.2585 29.922C14.2585 30.4153 14.2585 30.7441 14.5863 31.2373C16.225 33.539 20.1579 34.0322 22.7798 34.0322C25.5656 34.0322 28.1876 33.0458 29.8263 31.7305C33.2676 29.1 34.4147 23.6746 30.6456 20.5508C30.3179 20.3864 29.4985 19.8932 29.1708 19.7288V19.5644C29.8263 19.4 31.465 17.4271 31.465 15.6186C31.3011 11.0152 24.9102 10.8508 21.4689 10.8508C18.8469 11.0152 18.8469 10.3576 17.3721 10.0288C17.2082 10.6864 16.8805 11.0152 16.8805 12.0017Z" fill="#FEFEFE"/>
<path fill-rule="evenodd" clip-rule="evenodd" d="M66.2062 28.278C66.0423 27.9492 66.0423 27.9492 66.0423 27.6204C66.37 26.9628 66.8617 26.1408 67.5171 25.8119C67.3533 26.4696 66.8617 28.1136 66.2062 28.278ZM58.9958 17.9204L59.4875 19.8933C59.6513 20.8797 59.8152 25.4831 59.6513 26.4696L59.4875 32.5526C59.4875 33.2102 59.3236 33.5391 59.3236 34.1967C59.3236 35.5119 58.9958 36.4984 59.8152 37.6492C60.7984 39.1289 63.5842 38.4713 64.2397 38.1425L64.0758 35.6763C64.0758 35.3475 64.0758 35.0187 64.0758 34.6899C63.7481 31.2374 64.0758 25.6475 65.5507 23.017C66.6978 21.2086 68.6642 20.3865 68.0087 23.3458C68.0087 23.8391 67.8449 23.8391 67.5171 24.0035C67.0255 24.1679 66.8617 24.3323 66.5339 24.4967C63.7481 26.4696 64.4036 29.2645 65.7146 29.2645C67.0255 29.2645 67.3533 29.1001 68.5004 28.278C68.992 27.7848 69.6475 26.9628 69.9752 26.4696C71.1223 24.6611 71.7778 23.1814 71.6139 20.8797C71.6139 19.4001 70.3029 18.4136 68.6642 18.4136C67.5171 18.4136 66.6978 18.7424 65.8784 19.0713C65.3868 19.4001 65.0591 19.5645 64.7313 19.7289L63.5842 20.5509C63.5842 19.0713 63.7481 18.0848 62.7649 17.2628C61.29 15.9475 59.3236 17.9204 58.9958 17.9204Z" fill="#FEFEFE"/>
<path fill-rule="evenodd" clip-rule="evenodd" d="M104.06 29.7577C102.258 29.7577 102.258 25.4831 103.733 25.3187C103.897 24.8255 104.06 24.8255 104.06 24.0035C103.897 23.017 103.569 22.0306 102.749 21.8662C103.077 20.3865 105.699 20.3865 105.863 24.1679C105.863 24.6611 105.863 24.6611 105.863 24.9899C105.863 26.1408 105.535 29.5933 104.06 29.7577ZM101.275 21.5374C98.3249 21.7018 97.1778 25.8119 99.1443 29.1001C100.947 32.3882 106.191 32.5526 108.649 29.2645C110.124 27.1272 110.779 24.3323 109.96 21.7018C109.796 21.0441 109.468 20.5509 109.14 20.0577C108.813 19.5645 108.321 19.0713 107.829 18.9069C105.044 17.2628 101.111 18.7425 101.275 21.5374Z" fill="#FEFEFE"/>
<path fill-rule="evenodd" clip-rule="evenodd" d="M54.2436 25.4831C54.2436 26.6339 53.752 30.0865 52.6049 30.0865C51.13 30.0865 50.8023 27.9492 51.2939 26.6339C51.6216 25.8119 51.9494 26.1407 52.1133 25.6475C52.6049 24.8254 52.441 22.5237 51.13 22.3593C51.6216 20.7153 54.2436 20.8797 54.2436 25.4831ZM49.4913 21.8661C48.8358 22.0305 48.3442 22.3593 48.0165 22.6882C45.3945 24.4966 45.8862 32.2238 52.441 32.0593C58.0126 32.0593 60.3068 24.1678 57.521 20.3865C55.0629 17.2627 49.6552 18.7424 49.4913 21.8661Z" fill="#FEFEFE"/>
<path fill-rule="evenodd" clip-rule="evenodd" d="M76.8574 22.0304C77.1852 20.7151 79.8071 20.3863 79.8071 25.4829C79.971 26.4694 79.8071 27.2914 79.4794 28.1135C79.3155 28.6067 78.8239 29.9219 78.3323 29.9219C77.6768 29.9219 77.3491 29.5931 77.0213 28.9355C76.6936 28.1135 76.6936 26.6338 77.1852 25.9762C77.8407 25.1541 78.0045 26.1406 78.0045 24.0033C78.0045 22.688 77.1852 22.1948 76.8574 22.0304ZM75.2187 21.7016C74.7271 21.866 74.3994 21.866 73.9078 22.1948C70.7942 24.0033 71.6136 31.8948 78.0045 31.8948C82.1013 31.8948 84.3955 27.949 84.3955 24.0033C84.2316 21.044 82.5929 18.4135 79.8071 18.4135C78.3323 18.4135 77.6768 18.4135 76.3658 19.3999C75.7103 19.8931 75.3826 20.7151 75.2187 21.7016Z" fill="#FEFEFE"/>
<path fill-rule="evenodd" clip-rule="evenodd" d="M115.695 25.1542C115.695 24.661 115.695 24.4966 115.695 23.839C115.695 23.5101 115.695 23.0169 115.859 22.6881C116.351 19.8932 117.334 20.7152 117.334 21.3729V22.1949C117.334 23.1813 116.351 24.8254 115.695 25.1542ZM117.662 32.2237C119.136 32.0593 119.956 32.0593 121.267 31.2373C122.25 30.744 123.561 29.2644 122.414 28.2779C120.939 27.1271 121.267 29.1 118.973 29.4288C117.989 29.4288 116.678 28.6068 116.514 27.7847C117.17 27.6203 118.645 26.1406 119.136 25.483C121.758 21.8661 120.447 17.4271 116.023 17.9203C110.779 18.5779 108.649 27.7847 114.384 31.2373C115.203 31.7305 116.351 32.2237 117.662 32.2237Z" fill="#FEFEFE"/>
</svg>
